<?xml version="1.0" encoding="utf-8" standalone="no"?>
<!DOCTYPE svg PUBLIC "-//W3C//DTD SVG 1.1//EN"
  "http://www.w3.org/Graphics/SVG/1.1/DTD/svg11.dtd">
<svg xmlns:xlink="http://www.w3.org/1999/xlink" width="720pt" height="360pt" viewBox="0 0 720 360" xmlns="http://www.w3.org/2000/svg" version="1.1">
 <metadata>
  <rdf:RDF xmlns:dc="http://purl.org/dc/elements/1.1/" xmlns:cc="http://creativecommons.org/ns#" xmlns:rdf="http://www.w3.org/1999/02/22-rdf-syntax-ns#">
   <cc:Work>
    <dc:type rdf:resource="http://purl.org/dc/dcmitype/StillImage"/>
    <dc:date>2026-02-18T09:26:11.096239</dc:date>
    <dc:format>image/svg+xml</dc:format>
    <dc:creator>
     <cc:Agent>
      <dc:title>Matplotlib v3.10.7, https://matplotlib.org/</dc:title>
     </cc:Agent>
    </dc:creator>
   </cc:Work>
  </rdf:RDF>
 </metadata>
 <defs>
  <style type="text/css">*{stroke-linejoin: round; stroke-linecap: butt}</style>
 </defs>
 <g id="figure_1">
  <g id="patch_1">
   <path d="M 0 360 
L 720 360 
L 720 0 
L 0 0 
z
" style="fill: #ffffff"/>
  </g>
  <g id="axes_1">
   <g id="patch_2">
    <path d="M 90 320.4 
L 648 320.4 
L 648 43.2 
L 90 43.2 
z
" style="fill: #ffffff"/>
   </g>
   <g id="matplotlib.axis_1">
    <g id="xtick_1">
     <g id="line2d_1">
      <defs>
       <path id="mdde4996328" d="M 0 0 
L 0 3.5 
" style="stroke: #000000; stroke-width: 0.8"/>
      </defs>
      <g>
       <use xlink:href="#mdde4996328" x="115.363636" y="320.4" style="stroke: #000000; stroke-width: 0.8"/>
      </g>
     </g>
     <g id="text_1">
      <!-- 0 -->
      <g transform="translate(112.182386 334.998438) scale(0.1 -0.1)">
       <defs>
        <path id="DejaVuSans-30" d="M 2034 4250 
Q 1547 4250 1301 3770 
Q 1056 3291 1056 2328 
Q 1056 1369 1301 889 
Q 1547 409 2034 409 
Q 2525 409 2770 889 
Q 3016 1369 3016 2328 
Q 3016 3291 2770 3770 
Q 2525 4250 2034 4250 
z
M 2034 4750 
Q 2819 4750 3233 4129 
Q 3647 3509 3647 2328 
Q 3647 1150 3233 529 
Q 2819 -91 2034 -91 
Q 1250 -91 836 529 
Q 422 1150 422 2328 
Q 422 3509 836 4129 
Q 1250 4750 2034 4750 
z
" transform="scale(0.015625)"/>
       </defs>
       <use xlink:href="#DejaVuSans-30"/>
      </g>
     </g>
    </g>
    <g id="xtick_2">
     <g id="line2d_2">
      <g>
       <use xlink:href="#mdde4996328" x="223.294004" y="320.4" style="stroke: #000000; stroke-width: 0.8"/>
      </g>
     </g>
     <g id="text_2">
      <!-- 20 -->
      <g transform="translate(216.931504 334.998438) scale(0.1 -0.1)">
       <defs>
        <path id="DejaVuSans-32" d="M 1228 531 
L 3431 531 
L 3431 0 
L 469 0 
L 469 531 
Q 828 903 1448 1529 
Q 2069 2156 2228 2338 
Q 2531 2678 2651 2914 
Q 2772 3150 2772 3378 
Q 2772 3750 2511 3984 
Q 2250 4219 1831 4219 
Q 1534 4219 1204 4116 
Q 875 4013 500 3803 
L 500 4441 
Q 881 4594 1212 4672 
Q 1544 4750 1819 4750 
Q 2544 4750 2975 4387 
Q 3406 4025 3406 3419 
Q 3406 3131 3298 2873 
Q 3191 2616 2906 2266 
Q 2828 2175 2409 1742 
Q 1991 1309 1228 531 
z
" transform="scale(0.015625)"/>
       </defs>
       <use xlink:href="#DejaVuSans-32"/>
       <use xlink:href="#DejaVuSans-30" transform="translate(63.623047 0)"/>
      </g>
     </g>
    </g>
    <g id="xtick_3">
     <g id="line2d_3">
      <g>
       <use xlink:href="#mdde4996328" x="331.224371" y="320.4" style="stroke: #000000; stroke-width: 0.8"/>
      </g>
     </g>
     <g id="text_3">
      <!-- 40 -->
      <g transform="translate(324.861871 334.998438) scale(0.1 -0.1)">
       <defs>
        <path id="DejaVuSans-34" d="M 2419 4116 
L 825 1625 
L 2419 1625 
L 2419 4116 
z
M 2253 4666 
L 3047 4666 
L 3047 1625 
L 3713 1625 
L 3713 1100 
L 3047 1100 
L 3047 0 
L 2419 0 
L 2419 1100 
L 313 1100 
L 313 1709 
L 2253 4666 
z
" transform="scale(0.015625)"/>
       </defs>
       <use xlink:href="#DejaVuSans-34"/>
       <use xlink:href="#DejaVuSans-30" transform="translate(63.623047 0)"/>
      </g>
     </g>
    </g>
    <g id="xtick_4">
     <g id="line2d_4">
      <g>
       <use xlink:href="#mdde4996328" x="439.154739" y="320.4" style="stroke: #000000; stroke-width: 0.8"/>
      </g>
     </g>
     <g id="text_4">
      <!-- 60 -->
      <g transform="translate(432.792239 334.998438) scale(0.1 -0.1)">
       <defs>
        <path id="DejaVuSans-36" d="M 2113 2584 
Q 1688 2584 1439 2293 
Q 1191 2003 1191 1497 
Q 1191 994 1439 701 
Q 1688 409 2113 409 
Q 2538 409 2786 701 
Q 3034 994 3034 1497 
Q 3034 2003 2786 2293 
Q 2538 2584 2113 2584 
z
M 3366 4563 
L 3366 3988 
Q 3128 4100 2886 4159 
Q 2644 4219 2406 4219 
Q 1781 4219 1451 3797 
Q 1122 3375 1075 2522 
Q 1259 2794 1537 2939 
Q 1816 3084 2150 3084 
Q 2853 3084 3261 2657 
Q 3669 2231 3669 1497 
Q 3669 778 3244 343 
Q 2819 -91 2113 -91 
Q 1303 -91 875 529 
Q 447 1150 447 2328 
Q 447 3434 972 4092 
Q 1497 4750 2381 4750 
Q 2619 4750 2861 4703 
Q 3103 4656 3366 4563 
z
" transform="scale(0.015625)"/>
       </defs>
       <use xlink:href="#DejaVuSans-36"/>
       <use xlink:href="#DejaVuSans-30" transform="translate(63.623047 0)"/>
      </g>
     </g>
    </g>
    <g id="xtick_5">
     <g id="line2d_5">
      <g>
       <use xlink:href="#mdde4996328" x="547.085106" y="320.4" style="stroke: #000000; stroke-width: 0.8"/>
      </g>
     </g>
     <g id="text_5">
      <!-- 80 -->
      <g transform="translate(540.722606 334.998438) scale(0.1 -0.1)">
       <defs>
        <path id="DejaVuSans-38" d="M 2034 2216 
Q 1584 2216 1326 1975 
Q 1069 1734 1069 1313 
Q 1069 891 1326 650 
Q 1584 409 2034 409 
Q 2484 409 2743 651 
Q 3003 894 3003 1313 
Q 3003 1734 2745 1975 
Q 2488 2216 2034 2216 
z
M 1403 2484 
Q 997 2584 770 2862 
Q 544 3141 544 3541 
Q 544 4100 942 4425 
Q 1341 4750 2034 4750 
Q 2731 4750 3128 4425 
Q 3525 4100 3525 3541 
Q 3525 3141 3298 2862 
Q 3072 2584 2669 2484 
Q 3125 2378 3379 2068 
Q 3634 1759 3634 1313 
Q 3634 634 3220 271 
Q 2806 -91 2034 -91 
Q 1263 -91 848 271 
Q 434 634 434 1313 
Q 434 1759 690 2068 
Q 947 2378 1403 2484 
z
M 1172 3481 
Q 1172 3119 1398 2916 
Q 1625 2713 2034 2713 
Q 2441 2713 2670 2916 
Q 2900 3119 2900 3481 
Q 2900 3844 2670 4047 
Q 2441 4250 2034 4250 
Q 1625 4250 1398 4047 
Q 1172 3844 1172 3481 
z
" transform="scale(0.015625)"/>
       </defs>
       <use xlink:href="#DejaVuSans-38"/>
       <use xlink:href="#DejaVuSans-30" transform="translate(63.623047 0)"/>
      </g>
     </g>
    </g>
    <g id="text_6">
     <!-- Epoch -->
     <g transform="translate(353.689062 348.676562) scale(0.1 -0.1)">
      <defs>
       <path id="DejaVuSans-45" d="M 628 4666 
L 3578 4666 
L 3578 4134 
L 1259 4134 
L 1259 2753 
L 3481 2753 
L 3481 2222 
L 1259 2222 
L 1259 531 
L 3634 531 
L 3634 0 
L 628 0 
L 628 4666 
z
" transform="scale(0.015625)"/>
       <path id="DejaVuSans-70" d="M 1159 525 
L 1159 -1331 
L 581 -1331 
L 581 3500 
L 1159 3500 
L 1159 2969 
Q 1341 3281 1617 3432 
Q 1894 3584 2278 3584 
Q 2916 3584 3314 3078 
Q 3713 2572 3713 1747 
Q 3713 922 3314 415 
Q 2916 -91 2278 -91 
Q 1894 -91 1617 61 
Q 1341 213 1159 525 
z
M 3116 1747 
Q 3116 2381 2855 2742 
Q 2594 3103 2138 3103 
Q 1681 3103 1420 2742 
Q 1159 2381 1159 1747 
Q 1159 1113 1420 752 
Q 1681 391 2138 391 
Q 2594 391 2855 752 
Q 3116 1113 3116 1747 
z
" transform="scale(0.015625)"/>
       <path id="DejaVuSans-6f" d="M 1959 3097 
Q 1497 3097 1228 2736 
Q 959 2375 959 1747 
Q 959 1119 1226 758 
Q 1494 397 1959 397 
Q 2419 397 2687 759 
Q 2956 1122 2956 1747 
Q 2956 2369 2687 2733 
Q 2419 3097 1959 3097 
z
M 1959 3584 
Q 2709 3584 3137 3096 
Q 3566 2609 3566 1747 
Q 3566 888 3137 398 
Q 2709 -91 1959 -91 
Q 1206 -91 779 398 
Q 353 888 353 1747 
Q 353 2609 779 3096 
Q 1206 3584 1959 3584 
z
" transform="scale(0.015625)"/>
       <path id="DejaVuSans-63" d="M 3122 3366 
L 3122 2828 
Q 2878 2963 2633 3030 
Q 2388 3097 2138 3097 
Q 1578 3097 1268 2742 
Q 959 2388 959 1747 
Q 959 1106 1268 751 
Q 1578 397 2138 397 
Q 2388 397 2633 464 
Q 2878 531 3122 666 
L 3122 134 
Q 2881 22 2623 -34 
Q 2366 -91 2075 -91 
Q 1284 -91 818 406 
Q 353 903 353 1747 
Q 353 2603 823 3093 
Q 1294 3584 2113 3584 
Q 2378 3584 2631 3529 
Q 2884 3475 3122 3366 
z
" transform="scale(0.015625)"/>
       <path id="DejaVuSans-68" d="M 3513 2113 
L 3513 0 
L 2938 0 
L 2938 2094 
Q 2938 2591 2744 2837 
Q 2550 3084 2163 3084 
Q 1697 3084 1428 2787 
Q 1159 2491 1159 1978 
L 1159 0 
L 581 0 
L 581 4863 
L 1159 4863 
L 1159 2956 
Q 1366 3272 1645 3428 
Q 1925 3584 2291 3584 
Q 2894 3584 3203 3211 
Q 3513 2838 3513 2113 
z
" transform="scale(0.015625)"/>
      </defs>
      <use xlink:href="#DejaVuSans-45"/>
      <use xlink:href="#DejaVuSans-70" transform="translate(63.183594 0)"/>
      <use xlink:href="#DejaVuSans-6f" transform="translate(126.660156 0)"/>
      <use xlink:href="#DejaVuSans-63" transform="translate(187.841797 0)"/>
      <use xlink:href="#DejaVuSans-68" transform="translate(242.822266 0)"/>
     </g>
    </g>
   </g>
   <g id="matplotlib.axis_2">
    <g id="ytick_1">
     <g id="line2d_6">
      <defs>
       <path id="m8855abef65" d="M 0 0 
L -3.5 0 
" style="stroke: #000000; stroke-width: 0.8"/>
      </defs>
      <g>
       <use xlink:href="#m8855abef65" x="90" y="314.47291" style="stroke: #000000; stroke-width: 0.8"/>
      </g>
     </g>
     <g id="text_7">
      <!-- 0.05 -->
      <g transform="translate(60.734375 318.272129) scale(0.1 -0.1)">
       <defs>
        <path id="DejaVuSans-2e" d="M 684 794 
L 1344 794 
L 1344 0 
L 684 0 
L 684 794 
z
" transform="scale(0.015625)"/>
        <path id="DejaVuSans-35" d="M 691 4666 
L 3169 4666 
L 3169 4134 
L 1269 4134 
L 1269 2991 
Q 1406 3038 1543 3061 
Q 1681 3084 1819 3084 
Q 2600 3084 3056 2656 
Q 3513 2228 3513 1497 
Q 3513 744 3044 326 
Q 2575 -91 1722 -91 
Q 1428 -91 1123 -41 
Q 819 9 494 109 
L 494 744 
Q 775 591 1075 516 
Q 1375 441 1709 441 
Q 2250 441 2565 725 
Q 2881 1009 2881 1497 
Q 2881 1984 2565 2268 
Q 2250 2553 1709 2553 
Q 1456 2553 1204 2497 
Q 953 2441 691 2322 
L 691 4666 
z
" transform="scale(0.015625)"/>
       </defs>
       <use xlink:href="#DejaVuSans-30"/>
       <use xlink:href="#DejaVuSans-2e" transform="translate(63.623047 0)"/>
       <use xlink:href="#DejaVuSans-30" transform="translate(95.410156 0)"/>
       <use xlink:href="#DejaVuSans-35" transform="translate(159.033203 0)"/>
      </g>
     </g>
    </g>
    <g id="ytick_2">
     <g id="line2d_7">
      <g>
       <use xlink:href="#m8855abef65" x="90" y="262.834533" style="stroke: #000000; stroke-width: 0.8"/>
      </g>
     </g>
     <g id="text_8">
      <!-- 0.10 -->
      <g transform="translate(60.734375 266.633752) scale(0.1 -0.1)">
       <defs>
        <path id="DejaVuSans-31" d="M 794 531 
L 1825 531 
L 1825 4091 
L 703 3866 
L 703 4441 
L 1819 4666 
L 2450 4666 
L 2450 531 
L 3481 531 
L 3481 0 
L 794 0 
L 794 531 
z
" transform="scale(0.015625)"/>
       </defs>
       <use xlink:href="#DejaVuSans-30"/>
       <use xlink:href="#DejaVuSans-2e" transform="translate(63.623047 0)"/>
       <use xlink:href="#DejaVuSans-31" transform="translate(95.410156 0)"/>
       <use xlink:href="#DejaVuSans-30" transform="translate(159.033203 0)"/>
      </g>
     </g>
    </g>
    <g id="ytick_3">
     <g id="line2d_8">
      <g>
       <use xlink:href="#m8855abef65" x="90" y="211.196156" style="stroke: #000000; stroke-width: 0.8"/>
      </g>
     </g>
     <g id="text_9">
      <!-- 0.15 -->
      <g transform="translate(60.734375 214.995375) scale(0.1 -0.1)">
       <use xlink:href="#DejaVuSans-30"/>
       <use xlink:href="#DejaVuSans-2e" transform="translate(63.623047 0)"/>
       <use xlink:href="#DejaVuSans-31" transform="translate(95.410156 0)"/>
       <use xlink:href="#DejaVuSans-35" transform="translate(159.033203 0)"/>
      </g>
     </g>
    </g>
    <g id="ytick_4">
     <g id="line2d_9">
      <g>
       <use xlink:href="#m8855abef65" x="90" y="159.557779" style="stroke: #000000; stroke-width: 0.8"/>
      </g>
     </g>
     <g id="text_10">
      <!-- 0.20 -->
      <g transform="translate(60.734375 163.356997) scale(0.1 -0.1)">
       <use xlink:href="#DejaVuSans-30"/>
       <use xlink:href="#DejaVuSans-2e" transform="translate(63.623047 0)"/>
       <use xlink:href="#DejaVuSans-32" transform="translate(95.410156 0)"/>
       <use xlink:href="#DejaVuSans-30" transform="translate(159.033203 0)"/>
      </g>
     </g>
    </g>
    <g id="ytick_5">
     <g id="line2d_10">
      <g>
       <use xlink:href="#m8855abef65" x="90" y="107.919402" style="stroke: #000000; stroke-width: 0.8"/>
      </g>
     </g>
     <g id="text_11">
      <!-- 0.25 -->
      <g transform="translate(60.734375 111.71862) scale(0.1 -0.1)">
       <use xlink:href="#DejaVuSans-30"/>
       <use xlink:href="#DejaVuSans-2e" transform="translate(63.623047 0)"/>
       <use xlink:href="#DejaVuSans-32" transform="translate(95.410156 0)"/>
       <use xlink:href="#DejaVuSans-35" transform="translate(159.033203 0)"/>
      </g>
     </g>
    </g>
    <g id="ytick_6">
     <g id="line2d_11">
      <g>
       <use xlink:href="#m8855abef65" x="90" y="56.281025" style="stroke: #000000; stroke-width: 0.8"/>
      </g>
     </g>
     <g id="text_12">
      <!-- 0.30 -->
      <g transform="translate(60.734375 60.080243) scale(0.1 -0.1)">
       <defs>
        <path id="DejaVuSans-33" d="M 2597 2516 
Q 3050 2419 3304 2112 
Q 3559 1806 3559 1356 
Q 3559 666 3084 287 
Q 2609 -91 1734 -91 
Q 1441 -91 1130 -33 
Q 819 25 488 141 
L 488 750 
Q 750 597 1062 519 
Q 1375 441 1716 441 
Q 2309 441 2620 675 
Q 2931 909 2931 1356 
Q 2931 1769 2642 2001 
Q 2353 2234 1838 2234 
L 1294 2234 
L 1294 2753 
L 1863 2753 
Q 2328 2753 2575 2939 
Q 2822 3125 2822 3475 
Q 2822 3834 2567 4026 
Q 2313 4219 1838 4219 
Q 1578 4219 1281 4162 
Q 984 4106 628 3988 
L 628 4550 
Q 988 4650 1302 4700 
Q 1616 4750 1894 4750 
Q 2613 4750 3031 4423 
Q 3450 4097 3450 3541 
Q 3450 3153 3228 2886 
Q 3006 2619 2597 2516 
z
" transform="scale(0.015625)"/>
       </defs>
       <use xlink:href="#DejaVuSans-30"/>
       <use xlink:href="#DejaVuSans-2e" transform="translate(63.623047 0)"/>
       <use xlink:href="#DejaVuSans-33" transform="translate(95.410156 0)"/>
       <use xlink:href="#DejaVuSans-30" transform="translate(159.033203 0)"/>
      </g>
     </g>
    </g>
    <g id="text_13">
     <!-- Loss -->
     <g transform="translate(54.654688 192.767187) rotate(-90) scale(0.1 -0.1)">
      <defs>
       <path id="DejaVuSans-4c" d="M 628 4666 
L 1259 4666 
L 1259 531 
L 3531 531 
L 3531 0 
L 628 0 
L 628 4666 
z
" transform="scale(0.015625)"/>
       <path id="DejaVuSans-73" d="M 2834 3397 
L 2834 2853 
Q 2591 2978 2328 3040 
Q 2066 3103 1784 3103 
Q 1356 3103 1142 2972 
Q 928 2841 928 2578 
Q 928 2378 1081 2264 
Q 1234 2150 1697 2047 
L 1894 2003 
Q 2506 1872 2764 1633 
Q 3022 1394 3022 966 
Q 3022 478 2636 193 
Q 2250 -91 1575 -91 
Q 1294 -91 989 -36 
Q 684 19 347 128 
L 347 722 
Q 666 556 975 473 
Q 1284 391 1588 391 
Q 1994 391 2212 530 
Q 2431 669 2431 922 
Q 2431 1156 2273 1281 
Q 2116 1406 1581 1522 
L 1381 1569 
Q 847 1681 609 1914 
Q 372 2147 372 2553 
Q 372 3047 722 3315 
Q 1072 3584 1716 3584 
Q 2034 3584 2315 3537 
Q 2597 3491 2834 3397 
z
" transform="scale(0.015625)"/>
      </defs>
      <use xlink:href="#DejaVuSans-4c"/>
      <use xlink:href="#DejaVuSans-6f" transform="translate(53.962891 0)"/>
      <use xlink:href="#DejaVuSans-73" transform="translate(115.144531 0)"/>
      <use xlink:href="#DejaVuSans-73" transform="translate(167.244141 0)"/>
     </g>
    </g>
   </g>
   <g id="line2d_12">
    <path d="M 115.363636 55.8 
L 120.760155 172.047072 
L 126.156673 215.9495 
L 131.553191 225.462664 
L 136.94971 238.547086 
L 142.346228 242.806374 
L 147.742747 240.404683 
L 153.139265 248.809969 
L 158.535783 258.993659 
L 163.932302 254.794436 
L 169.32882 250.67323 
L 174.725338 256.933952 
L 180.121857 259.391238 
L 185.518375 264.908535 
L 190.914894 263.158056 
L 196.311412 265.00655 
L 201.70793 265.803069 
L 207.104449 258.69138 
L 212.500967 272.909833 
L 217.897485 267.059155 
L 223.294004 271.462303 
L 228.690522 270.062542 
L 234.087041 272.90307 
L 239.483559 269.623727 
L 244.880077 269.580167 
L 250.276596 275.618405 
L 255.673114 267.556149 
L 261.069632 272.377005 
L 266.466151 285.125806 
L 271.862669 277.325463 
L 277.259188 280.127379 
L 282.655706 281.07793 
L 288.052224 284.824673 
L 293.448743 274.294436 
L 298.845261 282.970138 
L 304.241779 279.67229 
L 309.638298 283.392063 
L 315.034816 285.762282 
L 320.431335 283.301011 
L 325.827853 287.324425 
L 331.224371 288.899688 
L 336.62089 285.24582 
L 342.017408 288.430341 
L 347.413926 289.135723 
L 352.810445 289.062508 
L 358.206963 288.959976 
L 363.603482 291.01515 
L 369 289.380577 
L 374.396518 286.776623 
L 379.793037 289.180853 
L 385.189555 289.607887 
L 390.586074 291.914948 
L 395.982592 297.345218 
L 401.37911 296.770676 
L 406.775629 293.581377 
L 412.172147 299.983144 
L 417.568665 302.462236 
L 422.965184 297.540941 
L 428.361702 295.221529 
L 433.758221 295.947488 
L 439.154739 294.969697 
L 444.551257 295.48435 
L 449.947776 297.827584 
L 455.344294 299.563451 
L 460.740812 301.338615 
L 466.137331 296.896 
L 471.533849 298.565808 
L 476.930368 300.415033 
L 482.326886 299.340735 
L 487.723404 298.979353 
L 493.119923 297.060182 
L 498.516441 297.139092 
L 503.912959 303.549038 
L 509.309478 301.025694 
L 514.705996 301.983474 
L 520.102515 301.520787 
L 525.499033 294.165637 
L 530.895551 301.705741 
L 536.29207 296.776609 
L 541.688588 298.778998 
L 547.085106 302.186092 
L 552.481625 304.814361 
L 557.878143 302.785676 
L 563.274662 302.547555 
L 568.67118 306.867362 
L 574.067698 301.83023 
L 579.464217 307.8 
L 584.860735 303.723223 
L 590.257253 303.429827 
L 595.653772 305.498802 
L 601.05029 302.689449 
L 606.446809 299.313757 
L 611.843327 306.056819 
L 617.239845 307.033714 
L 622.636364 303.603689 
" clip-path="url(#p280eede719)" style="fill: none; stroke: #1f77b4; stroke-width: 1.5; stroke-linecap: square"/>
   </g>
   <g id="line2d_13">
    <path d="M 115.363636 245.304725 
L 120.760155 254.083313 
L 126.156673 276.769427 
L 131.553191 279.690757 
L 136.94971 284.749311 
L 142.346228 274.719939 
L 147.742747 281.255124 
L 153.139265 283.961841 
L 158.535783 277.743016 
L 163.932302 275.305276 
L 169.32882 286.553422 
L 174.725338 281.147183 
L 180.121857 291.121676 
L 185.518375 258.683562 
L 190.914894 281.957059 
L 196.311412 273.183742 
L 201.70793 286.327428 
L 207.104449 289.868837 
L 212.500967 290.038183 
L 217.897485 291.141059 
L 223.294004 283.171863 
L 228.690522 288.601656 
L 234.087041 292.978088 
L 239.483559 288.832521 
L 244.880077 285.595507 
L 250.276596 292.336126 
L 255.673114 281.072082 
L 261.069632 287.697557 
L 266.466151 289.643321 
L 271.862669 296.461618 
L 277.259188 289.340018 
L 282.655706 295.293244 
L 288.052224 290.039999 
L 293.448743 287.239552 
L 298.845261 295.450078 
L 304.241779 295.104485 
L 309.638298 298.428819 
L 315.034816 296.948324 
L 320.431335 277.945334 
L 325.827853 292.649785 
L 331.224371 292.67841 
L 336.62089 280.656467 
L 342.017408 285.438157 
L 347.413926 295.671209 
L 352.810445 281.061764 
L 358.206963 292.105192 
L 363.603482 297.657477 
L 369 293.351444 
L 374.396518 296.810165 
L 379.793037 293.186584 
L 385.189555 294.662039 
L 390.586074 287.088628 
L 395.982592 298.685322 
L 401.37911 299.000282 
L 406.775629 300.192963 
L 412.172147 296.223028 
L 417.568665 298.919203 
L 422.965184 298.387175 
L 428.361702 297.185991 
L 433.758221 299.65608 
L 439.154739 297.674367 
L 444.551257 299.472038 
L 449.947776 300.230444 
L 455.344294 286.167678 
L 460.740812 303.327218 
L 466.137331 301.820696 
L 471.533849 300.201712 
L 476.930368 299.928119 
L 482.326886 301.547442 
L 487.723404 302.161738 
L 493.119923 301.121208 
L 498.516441 296.84937 
L 503.912959 301.370171 
L 509.309478 300.35446 
L 514.705996 299.086586 
L 520.102515 299.653802 
L 525.499033 295.032178 
L 530.895551 295.880051 
L 536.29207 299.316728 
L 541.688588 294.656668 
L 547.085106 300.088854 
L 552.481625 299.119904 
L 557.878143 299.557388 
L 563.274662 302.848691 
L 568.67118 301.936263 
L 574.067698 301.439023 
L 579.464217 301.265376 
L 584.860735 301.32037 
L 590.257253 296.475707 
L 595.653772 303.12442 
L 601.05029 301.967188 
L 606.446809 297.461746 
L 611.843327 301.171532 
L 617.239845 300.767505 
L 622.636364 300.877755 
" clip-path="url(#p280eede719)" style="fill: none; stroke: #ff7f0e; stroke-width: 1.5; stroke-linecap: square"/>
   </g>
   <g id="patch_3">
    <path d="M 90 320.4 
L 90 43.2 
" style="fill: none; stroke: #000000; stroke-width: 0.8; stroke-linejoin: miter; stroke-linecap: square"/>
   </g>
   <g id="patch_4">
    <path d="M 648 320.4 
L 648 43.2 
" style="fill: none; stroke: #000000; stroke-width: 0.8; stroke-linejoin: miter; stroke-linecap: square"/>
   </g>
   <g id="patch_5">
    <path d="M 90 320.4 
L 648 320.4 
" style="fill: none; stroke: #000000; stroke-width: 0.8; stroke-linejoin: miter; stroke-linecap: square"/>
   </g>
   <g id="patch_6">
    <path d="M 90 43.2 
L 648 43.2 
" style="fill: none; stroke: #000000; stroke-width: 0.8; stroke-linejoin: miter; stroke-linecap: square"/>
   </g>
   <g id="text_14">
    <!-- danets: Training and Validation Loss -->
    <g transform="translate(261.144375 37.2) scale(0.12 -0.12)">
     <defs>
      <path id="DejaVuSans-64" d="M 2906 2969 
L 2906 4863 
L 3481 4863 
L 3481 0 
L 2906 0 
L 2906 525 
Q 2725 213 2448 61 
Q 2172 -91 1784 -91 
Q 1150 -91 751 415 
Q 353 922 353 1747 
Q 353 2572 751 3078 
Q 1150 3584 1784 3584 
Q 2172 3584 2448 3432 
Q 2725 3281 2906 2969 
z
M 947 1747 
Q 947 1113 1208 752 
Q 1469 391 1925 391 
Q 2381 391 2643 752 
Q 2906 1113 2906 1747 
Q 2906 2381 2643 2742 
Q 2381 3103 1925 3103 
Q 1469 3103 1208 2742 
Q 947 2381 947 1747 
z
" transform="scale(0.015625)"/>
      <path id="DejaVuSans-61" d="M 2194 1759 
Q 1497 1759 1228 1600 
Q 959 1441 959 1056 
Q 959 750 1161 570 
Q 1363 391 1709 391 
Q 2188 391 2477 730 
Q 2766 1069 2766 1631 
L 2766 1759 
L 2194 1759 
z
M 3341 1997 
L 3341 0 
L 2766 0 
L 2766 531 
Q 2569 213 2275 61 
Q 1981 -91 1556 -91 
Q 1019 -91 701 211 
Q 384 513 384 1019 
Q 384 1609 779 1909 
Q 1175 2209 1959 2209 
L 2766 2209 
L 2766 2266 
Q 2766 2663 2505 2880 
Q 2244 3097 1772 3097 
Q 1472 3097 1187 3025 
Q 903 2953 641 2809 
L 641 3341 
Q 956 3463 1253 3523 
Q 1550 3584 1831 3584 
Q 2591 3584 2966 3190 
Q 3341 2797 3341 1997 
z
" transform="scale(0.015625)"/>
      <path id="DejaVuSans-6e" d="M 3513 2113 
L 3513 0 
L 2938 0 
L 2938 2094 
Q 2938 2591 2744 2837 
Q 2550 3084 2163 3084 
Q 1697 3084 1428 2787 
Q 1159 2491 1159 1978 
L 1159 0 
L 581 0 
L 581 3500 
L 1159 3500 
L 1159 2956 
Q 1366 3272 1645 3428 
Q 1925 3584 2291 3584 
Q 2894 3584 3203 3211 
Q 3513 2838 3513 2113 
z
" transform="scale(0.015625)"/>
      <path id="DejaVuSans-65" d="M 3597 1894 
L 3597 1613 
L 953 1613 
Q 991 1019 1311 708 
Q 1631 397 2203 397 
Q 2534 397 2845 478 
Q 3156 559 3463 722 
L 3463 178 
Q 3153 47 2828 -22 
Q 2503 -91 2169 -91 
Q 1331 -91 842 396 
Q 353 884 353 1716 
Q 353 2575 817 3079 
Q 1281 3584 2069 3584 
Q 2775 3584 3186 3129 
Q 3597 2675 3597 1894 
z
M 3022 2063 
Q 3016 2534 2758 2815 
Q 2500 3097 2075 3097 
Q 1594 3097 1305 2825 
Q 1016 2553 972 2059 
L 3022 2063 
z
" transform="scale(0.015625)"/>
      <path id="DejaVuSans-74" d="M 1172 4494 
L 1172 3500 
L 2356 3500 
L 2356 3053 
L 1172 3053 
L 1172 1153 
Q 1172 725 1289 603 
Q 1406 481 1766 481 
L 2356 481 
L 2356 0 
L 1766 0 
Q 1100 0 847 248 
Q 594 497 594 1153 
L 594 3053 
L 172 3053 
L 172 3500 
L 594 3500 
L 594 4494 
L 1172 4494 
z
" transform="scale(0.015625)"/>
      <path id="DejaVuSans-3a" d="M 750 794 
L 1409 794 
L 1409 0 
L 750 0 
L 750 794 
z
M 750 3309 
L 1409 3309 
L 1409 2516 
L 750 2516 
L 750 3309 
z
" transform="scale(0.015625)"/>
      <path id="DejaVuSans-20" transform="scale(0.015625)"/>
      <path id="DejaVuSans-54" d="M -19 4666 
L 3928 4666 
L 3928 4134 
L 2272 4134 
L 2272 0 
L 1638 0 
L 1638 4134 
L -19 4134 
L -19 4666 
z
" transform="scale(0.015625)"/>
      <path id="DejaVuSans-72" d="M 2631 2963 
Q 2534 3019 2420 3045 
Q 2306 3072 2169 3072 
Q 1681 3072 1420 2755 
Q 1159 2438 1159 1844 
L 1159 0 
L 581 0 
L 581 3500 
L 1159 3500 
L 1159 2956 
Q 1341 3275 1631 3429 
Q 1922 3584 2338 3584 
Q 2397 3584 2469 3576 
Q 2541 3569 2628 3553 
L 2631 2963 
z
" transform="scale(0.015625)"/>
      <path id="DejaVuSans-69" d="M 603 3500 
L 1178 3500 
L 1178 0 
L 603 0 
L 603 3500 
z
M 603 4863 
L 1178 4863 
L 1178 4134 
L 603 4134 
L 603 4863 
z
" transform="scale(0.015625)"/>
      <path id="DejaVuSans-67" d="M 2906 1791 
Q 2906 2416 2648 2759 
Q 2391 3103 1925 3103 
Q 1463 3103 1205 2759 
Q 947 2416 947 1791 
Q 947 1169 1205 825 
Q 1463 481 1925 481 
Q 2391 481 2648 825 
Q 2906 1169 2906 1791 
z
M 3481 434 
Q 3481 -459 3084 -895 
Q 2688 -1331 1869 -1331 
Q 1566 -1331 1297 -1286 
Q 1028 -1241 775 -1147 
L 775 -588 
Q 1028 -725 1275 -790 
Q 1522 -856 1778 -856 
Q 2344 -856 2625 -561 
Q 2906 -266 2906 331 
L 2906 616 
Q 2728 306 2450 153 
Q 2172 0 1784 0 
Q 1141 0 747 490 
Q 353 981 353 1791 
Q 353 2603 747 3093 
Q 1141 3584 1784 3584 
Q 2172 3584 2450 3431 
Q 2728 3278 2906 2969 
L 2906 3500 
L 3481 3500 
L 3481 434 
z
" transform="scale(0.015625)"/>
      <path id="DejaVuSans-56" d="M 1831 0 
L 50 4666 
L 709 4666 
L 2188 738 
L 3669 4666 
L 4325 4666 
L 2547 0 
L 1831 0 
z
" transform="scale(0.015625)"/>
      <path id="DejaVuSans-6c" d="M 603 4863 
L 1178 4863 
L 1178 0 
L 603 0 
L 603 4863 
z
" transform="scale(0.015625)"/>
     </defs>
     <use xlink:href="#DejaVuSans-64"/>
     <use xlink:href="#DejaVuSans-61" transform="translate(63.476562 0)"/>
     <use xlink:href="#DejaVuSans-6e" transform="translate(124.755859 0)"/>
     <use xlink:href="#DejaVuSans-65" transform="translate(188.134766 0)"/>
     <use xlink:href="#DejaVuSans-74" transform="translate(249.658203 0)"/>
     <use xlink:href="#DejaVuSans-73" transform="translate(288.867188 0)"/>
     <use xlink:href="#DejaVuSans-3a" transform="translate(340.966797 0)"/>
     <use xlink:href="#DejaVuSans-20" transform="translate(374.658203 0)"/>
     <use xlink:href="#DejaVuSans-54" transform="translate(406.445312 0)"/>
     <use xlink:href="#DejaVuSans-72" transform="translate(452.779297 0)"/>
     <use xlink:href="#DejaVuSans-61" transform="translate(493.892578 0)"/>
     <use xlink:href="#DejaVuSans-69" transform="translate(555.171875 0)"/>
     <use xlink:href="#DejaVuSans-6e" transform="translate(582.955078 0)"/>
     <use xlink:href="#DejaVuSans-69" transform="translate(646.333984 0)"/>
     <use xlink:href="#DejaVuSans-6e" transform="translate(674.117188 0)"/>
     <use xlink:href="#DejaVuSans-67" transform="translate(737.496094 0)"/>
     <use xlink:href="#DejaVuSans-20" transform="translate(800.972656 0)"/>
     <use xlink:href="#DejaVuSans-61" transform="translate(832.759766 0)"/>
     <use xlink:href="#DejaVuSans-6e" transform="translate(894.039062 0)"/>
     <use xlink:href="#DejaVuSans-64" transform="translate(957.417969 0)"/>
     <use xlink:href="#DejaVuSans-20" transform="translate(1020.894531 0)"/>
     <use xlink:href="#DejaVuSans-56" transform="translate(1052.681641 0)"/>
     <use xlink:href="#DejaVuSans-61" transform="translate(1113.339844 0)"/>
     <use xlink:href="#DejaVuSans-6c" transform="translate(1174.619141 0)"/>
     <use xlink:href="#DejaVuSans-69" transform="translate(1202.402344 0)"/>
     <use xlink:href="#DejaVuSans-64" transform="translate(1230.185547 0)"/>
     <use xlink:href="#DejaVuSans-61" transform="translate(1293.662109 0)"/>
     <use xlink:href="#DejaVuSans-74" transform="translate(1354.941406 0)"/>
     <use xlink:href="#DejaVuSans-69" transform="translate(1394.150391 0)"/>
     <use xlink:href="#DejaVuSans-6f" transform="translate(1421.933594 0)"/>
     <use xlink:href="#DejaVuSans-6e" transform="translate(1483.115234 0)"/>
     <use xlink:href="#DejaVuSans-20" transform="translate(1546.494141 0)"/>
     <use xlink:href="#DejaVuSans-4c" transform="translate(1578.28125 0)"/>
     <use xlink:href="#DejaVuSans-6f" transform="translate(1632.244141 0)"/>
     <use xlink:href="#DejaVuSans-73" transform="translate(1693.425781 0)"/>
     <use xlink:href="#DejaVuSans-73" transform="translate(1745.525391 0)"/>
    </g>
   </g>
   <g id="legend_1">
    <g id="patch_7">
     <path d="M 534.50625 80.55625 
L 641 80.55625 
Q 643 80.55625 643 78.55625 
L 643 50.2 
Q 643 48.2 641 48.2 
L 534.50625 48.2 
Q 532.50625 48.2 532.50625 50.2 
L 532.50625 78.55625 
Q 532.50625 80.55625 534.50625 80.55625 
z
" style="fill: #ffffff; opacity: 0.8; stroke: #cccccc; stroke-linejoin: miter"/>
    </g>
    <g id="line2d_14">
     <path d="M 536.50625 56.298437 
L 546.50625 56.298437 
L 556.50625 56.298437 
" style="fill: none; stroke: #1f77b4; stroke-width: 1.5; stroke-linecap: square"/>
    </g>
    <g id="text_15">
     <!-- Train Loss -->
     <g transform="translate(564.50625 59.798437) scale(0.1 -0.1)">
      <use xlink:href="#DejaVuSans-54"/>
      <use xlink:href="#DejaVuSans-72" transform="translate(46.333984 0)"/>
      <use xlink:href="#DejaVuSans-61" transform="translate(87.447266 0)"/>
      <use xlink:href="#DejaVuSans-69" transform="translate(148.726562 0)"/>
      <use xlink:href="#DejaVuSans-6e" transform="translate(176.509766 0)"/>
      <use xlink:href="#DejaVuSans-20" transform="translate(239.888672 0)"/>
      <use xlink:href="#DejaVuSans-4c" transform="translate(271.675781 0)"/>
      <use xlink:href="#DejaVuSans-6f" transform="translate(325.638672 0)"/>
      <use xlink:href="#DejaVuSans-73" transform="translate(386.820312 0)"/>
      <use xlink:href="#DejaVuSans-73" transform="translate(438.919922 0)"/>
     </g>
    </g>
    <g id="line2d_15">
     <path d="M 536.50625 70.976562 
L 546.50625 70.976562 
L 556.50625 70.976562 
" style="fill: none; stroke: #ff7f0e; stroke-width: 1.5; stroke-linecap: square"/>
    </g>
    <g id="text_16">
     <!-- Validation Loss -->
     <g transform="translate(564.50625 74.476562) scale(0.1 -0.1)">
      <use xlink:href="#DejaVuSans-56"/>
      <use xlink:href="#DejaVuSans-61" transform="translate(60.658203 0)"/>
      <use xlink:href="#DejaVuSans-6c" transform="translate(121.9375 0)"/>
      <use xlink:href="#DejaVuSans-69" transform="translate(149.720703 0)"/>
      <use xlink:href="#DejaVuSans-64" transform="translate(177.503906 0)"/>
      <use xlink:href="#DejaVuSans-61" transform="translate(240.980469 0)"/>
      <use xlink:href="#DejaVuSans-74" transform="translate(302.259766 0)"/>
      <use xlink:href="#DejaVuSans-69" transform="translate(341.46875 0)"/>
      <use xlink:href="#DejaVuSans-6f" transform="translate(369.251953 0)"/>
      <use xlink:href="#DejaVuSans-6e" transform="translate(430.433594 0)"/>
      <use xlink:href="#DejaVuSans-20" transform="translate(493.8125 0)"/>
      <use xlink:href="#DejaVuSans-4c" transform="translate(525.599609 0)"/>
      <use xlink:href="#DejaVuSans-6f" transform="translate(579.5625 0)"/>
      <use xlink:href="#DejaVuSans-73" transform="translate(640.744141 0)"/>
      <use xlink:href="#DejaVuSans-73" transform="translate(692.84375 0)"/>
     </g>
    </g>
   </g>
  </g>
 </g>
 <defs>
  <clipPath id="p280eede719">
   <rect x="90" y="43.2" width="558" height="277.2"/>
  </clipPath>
 </defs>
</svg>
