<?xml version="1.0" encoding="utf-8" standalone="no"?>
<!DOCTYPE svg PUBLIC "-//W3C//DTD SVG 1.1//EN"
  "http://www.w3.org/Graphics/SVG/1.1/DTD/svg11.dtd">
<svg xmlns:xlink="http://www.w3.org/1999/xlink" width="864pt" height="432pt" viewBox="0 0 864 432" xmlns="http://www.w3.org/2000/svg" version="1.1">
 <metadata>
  <rdf:RDF xmlns:dc="http://purl.org/dc/elements/1.1/" xmlns:cc="http://creativecommons.org/ns#" xmlns:rdf="http://www.w3.org/1999/02/22-rdf-syntax-ns#">
   <cc:Work>
    <dc:type rdf:resource="http://purl.org/dc/dcmitype/StillImage"/>
    <dc:date>2026-02-18T15:40:09.003403</dc:date>
    <dc:format>image/svg+xml</dc:format>
    <dc:creator>
     <cc:Agent>
      <dc:title>Matplotlib v3.10.7, https://matplotlib.org/</dc:title>
     </cc:Agent>
    </dc:creator>
   </cc:Work>
  </rdf:RDF>
 </metadata>
 <defs>
  <style type="text/css">*{stroke-linejoin: round; stroke-linecap: butt}</style>
 </defs>
 <g id="figure_1">
  <g id="patch_1">
   <path d="M 0 432 
L 864 432 
L 864 0 
L 0 0 
z
" style="fill: #ffffff"/>
  </g>
  <g id="axes_1">
   <g id="patch_2">
    <path d="M 52.94 390.04 
L 853.2 390.04 
L 853.2 26.88 
L 52.94 26.88 
z
" style="fill: #ffffff"/>
   </g>
   <g id="FillBetweenPolyCollection_1">
    <defs>
     <path id="m773e120240" d="M 97.414964 -61.182645 
L 97.382813 -61.182645 
L 97.37 -63.388882 
L 97.351127 -65.595118 
L 97.325969 -67.801355 
L 97.295567 -70.007591 
L 97.262167 -72.213828 
L 97.228695 -74.420064 
L 97.198061 -76.626301 
L 97.172723 -78.832537 
L 97.154675 -81.038774 
L 97.145594 -83.24501 
L 97.146686 -85.451247 
L 97.158003 -87.657483 
L 97.177554 -89.86372 
L 97.200886 -92.069956 
L 97.221667 -94.276193 
L 97.233173 -96.482429 
L 97.230035 -98.688666 
L 97.209379 -100.894903 
L 97.170898 -103.101139 
L 97.115978 -105.307376 
L 97.04637 -107.513612 
L 96.962892 -109.719849 
L 96.864366 -111.926085 
L 96.7469 -114.132322 
L 96.603651 -116.338558 
L 96.425214 -118.544795 
L 96.200599 -120.751031 
L 95.918636 -122.957268 
L 95.569692 -125.163504 
L 95.147576 -127.369741 
L 94.651104 -129.575977 
L 94.084632 -131.782214 
L 93.457439 -133.98845 
L 92.783222 -136.194687 
L 92.081147 -138.400923 
L 91.377968 -140.60716 
L 90.707739 -142.813396 
L 90.105049 -145.019633 
L 89.591254 -147.225869 
L 89.158859 -149.432106 
L 88.762474 -151.638342 
L 88.322978 -153.844579 
L 87.746026 -156.050815 
L 86.950505 -158.257052 
L 85.898919 -160.463288 
L 84.619671 -162.669525 
L 83.210597 -164.875761 
L 81.816543 -167.081998 
L 80.583708 -169.288234 
L 79.607274 -171.494471 
L 78.896862 -173.700707 
L 78.378287 -175.906944 
L 77.931173 -178.11318 
L 77.442576 -180.319417 
L 76.849798 -182.525653 
L 76.154539 -184.73189 
L 75.407593 -186.938126 
L 74.677468 -189.144363 
L 74.020881 -191.350599 
L 73.468301 -193.556836 
L 73.027978 -195.763072 
L 72.702462 -197.969309 
L 72.506545 -200.175545 
L 72.476431 -202.381782 
L 72.665446 -204.588018 
L 73.128489 -206.794255 
L 73.902317 -209.000491 
L 74.98986 -211.206728 
L 76.354393 -213.412964 
L 77.925173 -215.619201 
L 79.612016 -217.825437 
L 81.323594 -220.031674 
L 82.983755 -222.23791 
L 84.54169 -224.444147 
L 85.974432 -226.650383 
L 87.282757 -228.85662 
L 88.483021 -231.062856 
L 89.597653 -233.269093 
L 90.646303 -235.475329 
L 91.638942 -237.681566 
L 92.571876 -239.887802 
L 93.427675 -242.094039 
L 94.17973 -244.300275 
L 94.801009 -246.506512 
L 95.274789 -248.712748 
L 95.603537 -250.918985 
L 95.812014 -253.125221 
L 95.942493 -255.331458 
L 96.043307 -257.537694 
L 96.15505 -259.743931 
L 96.300059 -261.950167 
L 96.479266 -264.156404 
L 96.676961 -266.36264 
L 96.87036 -268.568877 
L 97.039231 -270.775113 
L 97.171849 -272.98135 
L 97.266101 -275.187586 
L 97.327001 -277.393823 
L 97.362895 -279.600059 
L 97.434883 -279.600059 
L 97.434883 -279.600059 
L 97.470777 -277.393823 
L 97.531677 -275.187586 
L 97.625929 -272.98135 
L 97.758547 -270.775113 
L 97.927418 -268.568877 
L 98.120817 -266.36264 
L 98.318512 -264.156404 
L 98.497719 -261.950167 
L 98.642728 -259.743931 
L 98.754471 -257.537694 
L 98.855285 -255.331458 
L 98.985764 -253.125221 
L 99.19424 -250.918985 
L 99.522988 -248.712748 
L 99.996768 -246.506512 
L 100.618048 -244.300275 
L 101.370103 -242.094039 
L 102.225902 -239.887802 
L 103.158836 -237.681566 
L 104.151474 -235.475329 
L 105.200125 -233.269093 
L 106.314756 -231.062856 
L 107.515021 -228.85662 
L 108.823346 -226.650383 
L 110.256088 -224.444147 
L 111.814022 -222.23791 
L 113.474183 -220.031674 
L 115.185761 -217.825437 
L 116.872605 -215.619201 
L 118.443385 -213.412964 
L 119.807917 -211.206728 
L 120.89546 -209.000491 
L 121.669289 -206.794255 
L 122.132332 -204.588018 
L 122.321347 -202.381782 
L 122.291233 -200.175545 
L 122.095316 -197.969309 
L 121.7698 -195.763072 
L 121.329477 -193.556836 
L 120.776897 -191.350599 
L 120.12031 -189.144363 
L 119.390185 -186.938126 
L 118.643239 -184.73189 
L 117.947979 -182.525653 
L 117.355202 -180.319417 
L 116.866605 -178.11318 
L 116.419491 -175.906944 
L 115.900916 -173.700707 
L 115.190504 -171.494471 
L 114.21407 -169.288234 
L 112.981235 -167.081998 
L 111.58718 -164.875761 
L 110.178107 -162.669525 
L 108.898858 -160.463288 
L 107.847272 -158.257052 
L 107.051751 -156.050815 
L 106.4748 -153.844579 
L 106.035303 -151.638342 
L 105.638919 -149.432106 
L 105.206523 -147.225869 
L 104.692729 -145.019633 
L 104.090039 -142.813396 
L 103.41981 -140.60716 
L 102.71663 -138.400923 
L 102.014556 -136.194687 
L 101.340339 -133.98845 
L 100.713146 -131.782214 
L 100.146673 -129.575977 
L 99.650202 -127.369741 
L 99.228085 -125.163504 
L 98.879142 -122.957268 
L 98.597178 -120.751031 
L 98.372564 -118.544795 
L 98.194127 -116.338558 
L 98.050878 -114.132322 
L 97.933412 -111.926085 
L 97.834886 -109.719849 
L 97.751408 -107.513612 
L 97.6818 -105.307376 
L 97.62688 -103.101139 
L 97.588399 -100.894903 
L 97.567743 -98.688666 
L 97.564605 -96.482429 
L 97.576111 -94.276193 
L 97.596892 -92.069956 
L 97.620224 -89.86372 
L 97.639774 -87.657483 
L 97.651091 -85.451247 
L 97.652184 -83.24501 
L 97.643103 -81.038774 
L 97.625055 -78.832537 
L 97.599717 -76.626301 
L 97.569082 -74.420064 
L 97.53561 -72.213828 
L 97.502211 -70.007591 
L 97.471809 -67.801355 
L 97.446651 -65.595118 
L 97.427778 -63.388882 
L 97.414964 -61.182645 
z
" style="stroke: #3f3f3f; stroke-width: 1.25"/>
    </defs>
    <g clip-path="url(#p94a718e096)">
     <use xlink:href="#m773e120240" x="0" y="432" style="fill: #3274a1; stroke: #3f3f3f; stroke-width: 1.25"/>
    </g>
   </g>
   <g id="FillBetweenPolyCollection_2">
    <defs>
     <path id="m74e1af8392" d="M 186.339021 -75.601744 
L 186.294313 -75.601744 
L 186.280798 -77.713772 
L 186.262417 -79.825801 
L 186.239211 -81.93783 
L 186.21204 -84.049859 
L 186.182512 -86.161888 
L 186.152585 -88.273916 
L 186.123903 -90.385945 
L 186.097067 -92.497974 
L 186.071131 -94.610003 
L 186.043522 -96.722031 
L 186.010427 -98.83406 
L 185.967467 -100.946089 
L 185.910413 -103.058118 
L 185.835734 -105.170147 
L 185.740931 -107.282175 
L 185.624764 -109.394204 
L 185.487504 -111.506233 
L 185.331195 -113.618262 
L 185.159757 -115.73029 
L 184.97862 -117.842319 
L 184.79364 -119.954348 
L 184.609397 -122.066377 
L 184.427289 -124.178406 
L 184.244149 -126.290434 
L 184.052016 -128.402463 
L 183.839274 -130.514492 
L 183.592819 -132.626521 
L 183.300535 -134.738549 
L 182.953302 -136.850578 
L 182.546154 -138.962607 
L 182.078531 -141.074636 
L 181.553819 -143.186665 
L 180.978238 -145.298693 
L 180.358999 -147.410722 
L 179.701702 -149.522751 
L 179.007401 -151.63478 
L 178.270404 -153.746808 
L 177.478197 -155.858837 
L 176.614511 -157.970866 
L 175.665366 -160.082895 
L 174.626396 -162.194924 
L 173.508818 -164.306952 
L 172.341554 -166.418981 
L 171.168508 -168.53101 
L 170.041911 -170.643039 
L 169.014083 -172.755068 
L 168.130054 -174.867096 
L 167.422449 -176.979125 
L 166.908626 -179.091154 
L 166.589262 -181.203183 
L 166.447815 -183.315211 
L 166.451142 -185.42724 
L 166.552296 -187.539269 
L 166.696289 -189.651298 
L 166.828467 -191.763327 
L 166.903661 -193.875355 
L 166.893449 -195.987384 
L 166.789343 -198.099413 
L 166.601396 -200.211442 
L 166.353619 -202.32347 
L 166.0785 -204.435499 
L 165.812436 -206.547528 
L 165.592463 -208.659557 
L 165.453552 -210.771586 
L 165.425843 -212.883614 
L 165.532169 -214.995643 
L 165.787083 -217.107672 
L 166.198289 -219.219701 
L 166.769869 -221.331729 
L 167.505232 -223.443758 
L 168.407388 -225.555787 
L 169.475629 -227.667816 
L 170.699952 -229.779845 
L 172.05619 -231.891873 
L 173.504755 -234.003902 
L 174.994189 -236.115931 
L 176.468424 -238.22796 
L 177.875149 -240.339988 
L 179.17253 -242.452017 
L 180.332668 -244.564046 
L 181.341721 -246.676075 
L 182.197773 -248.788104 
L 182.907902 -250.900132 
L 183.485537 -253.012161 
L 183.948457 -255.12419 
L 184.317225 -257.236219 
L 184.613558 -259.348247 
L 184.858382 -261.460276 
L 185.069677 -263.572305 
L 185.260646 -265.684334 
L 185.438755 -267.796363 
L 185.606014 -269.908391 
L 185.760413 -272.02042 
L 185.898008 -274.132449 
L 186.015017 -276.244478 
L 186.109309 -278.356506 
L 186.181037 -280.468535 
L 186.232429 -282.580564 
L 186.267069 -284.692593 
L 186.366264 -284.692593 
L 186.366264 -284.692593 
L 186.400905 -282.580564 
L 186.452297 -280.468535 
L 186.524024 -278.356506 
L 186.618317 -276.244478 
L 186.735325 -274.132449 
L 186.872921 -272.02042 
L 187.027319 -269.908391 
L 187.194579 -267.796363 
L 187.372687 -265.684334 
L 187.563656 -263.572305 
L 187.774952 -261.460276 
L 188.019775 -259.348247 
L 188.316109 -257.236219 
L 188.684877 -255.12419 
L 189.147797 -253.012161 
L 189.725431 -250.900132 
L 190.435561 -248.788104 
L 191.291612 -246.676075 
L 192.300665 -244.564046 
L 193.460803 -242.452017 
L 194.758184 -240.339988 
L 196.164909 -238.22796 
L 197.639144 -236.115931 
L 199.128578 -234.003902 
L 200.577144 -231.891873 
L 201.933382 -229.779845 
L 203.157705 -227.667816 
L 204.225946 -225.555787 
L 205.128101 -223.443758 
L 205.863464 -221.331729 
L 206.435045 -219.219701 
L 206.84625 -217.107672 
L 207.101165 -214.995643 
L 207.20749 -212.883614 
L 207.179781 -210.771586 
L 207.04087 -208.659557 
L 206.820897 -206.547528 
L 206.554834 -204.435499 
L 206.279714 -202.32347 
L 206.031937 -200.211442 
L 205.843991 -198.099413 
L 205.739884 -195.987384 
L 205.729672 -193.875355 
L 205.804867 -191.763327 
L 205.937044 -189.651298 
L 206.081037 -187.539269 
L 206.182191 -185.42724 
L 206.185518 -183.315211 
L 206.044071 -181.203183 
L 205.724708 -179.091154 
L 205.210884 -176.979125 
L 204.503279 -174.867096 
L 203.61925 -172.755068 
L 202.591423 -170.643039 
L 201.464826 -168.53101 
L 200.291779 -166.418981 
L 199.124515 -164.306952 
L 198.006937 -162.194924 
L 196.967967 -160.082895 
L 196.018822 -157.970866 
L 195.155137 -155.858837 
L 194.36293 -153.746808 
L 193.625933 -151.63478 
L 192.931632 -149.522751 
L 192.274334 -147.410722 
L 191.655095 -145.298693 
L 191.079515 -143.186665 
L 190.554803 -141.074636 
L 190.087179 -138.962607 
L 189.680031 -136.850578 
L 189.332798 -134.738549 
L 189.040514 -132.626521 
L 188.79406 -130.514492 
L 188.581317 -128.402463 
L 188.389184 -126.290434 
L 188.206044 -124.178406 
L 188.023936 -122.066377 
L 187.839693 -119.954348 
L 187.654714 -117.842319 
L 187.473576 -115.73029 
L 187.302139 -113.618262 
L 187.145829 -111.506233 
L 187.008569 -109.394204 
L 186.892403 -107.282175 
L 186.7976 -105.170147 
L 186.722921 -103.058118 
L 186.665867 -100.946089 
L 186.622906 -98.83406 
L 186.589811 -96.722031 
L 186.562203 -94.610003 
L 186.536267 -92.497974 
L 186.509431 -90.385945 
L 186.480749 -88.273916 
L 186.450822 -86.161888 
L 186.421293 -84.049859 
L 186.394122 -81.93783 
L 186.370916 -79.825801 
L 186.352535 -77.713772 
L 186.339021 -75.601744 
z
" style="stroke: #3f3f3f; stroke-width: 1.25"/>
    </defs>
    <g clip-path="url(#p94a718e096)">
     <use xlink:href="#m74e1af8392" x="0" y="432" style="fill: #3274a1; stroke: #3f3f3f; stroke-width: 1.25"/>
    </g>
   </g>
   <g id="FillBetweenPolyCollection_3">
    <defs>
     <path id="me6c09ee10e" d="M 275.273144 -90.842287 
L 275.195745 -90.842287 
L 275.169172 -92.921594 
L 275.130611 -95.000902 
L 275.078293 -97.08021 
L 275.011737 -99.159518 
L 274.931941 -101.238825 
L 274.840974 -103.318133 
L 274.740968 -105.397441 
L 274.632847 -107.476749 
L 274.515325 -109.556057 
L 274.384761 -111.635364 
L 274.236089 -113.714672 
L 274.064619 -115.79398 
L 273.868029 -117.873288 
L 273.647679 -119.952595 
L 273.408526 -122.031903 
L 273.15743 -124.111211 
L 272.900295 -126.190519 
L 272.639131 -128.269826 
L 272.370386 -130.349134 
L 272.085592 -132.428442 
L 271.774456 -134.50775 
L 271.429268 -136.587058 
L 271.048561 -138.666365 
L 270.637816 -140.745673 
L 270.20609 -142.824981 
L 269.759343 -144.904289 
L 269.293128 -146.983596 
L 268.788238 -149.062904 
L 268.212164 -151.142212 
L 267.527014 -153.22152 
L 266.701797 -155.300828 
L 265.724835 -157.380135 
L 264.611703 -159.459443 
L 263.405484 -161.538751 
L 262.168915 -163.618059 
L 260.970843 -165.697366 
L 259.871394 -167.776674 
L 258.910599 -169.855982 
L 258.103848 -171.93529 
L 257.444941 -174.014598 
L 256.914699 -176.093905 
L 256.491136 -178.173213 
L 256.157106 -180.252521 
L 255.902973 -182.331829 
L 255.724415 -184.411136 
L 255.617533 -186.490444 
L 255.5741 -188.569752 
L 255.579018 -190.64906 
L 255.610672 -192.728368 
L 255.643809 -194.807675 
L 255.65411 -196.886983 
L 255.623574 -198.966291 
L 255.545629 -201.045599 
L 255.428578 -203.124906 
L 255.295806 -205.204214 
L 255.181753 -207.283522 
L 255.123984 -209.36283 
L 255.153411 -211.442137 
L 255.286044 -213.521445 
L 255.519811 -215.600753 
L 255.838597 -217.680061 
L 256.222887 -219.759369 
L 256.66324 -221.838676 
L 257.170687 -223.917984 
L 257.778423 -225.997292 
L 258.532393 -228.0766 
L 259.473383 -230.155907 
L 260.617617 -232.235215 
L 261.944265 -234.314523 
L 263.395602 -236.393831 
L 264.890034 -238.473139 
L 266.342677 -240.552446 
L 267.685253 -242.631754 
L 268.878151 -244.711062 
L 269.911591 -246.79037 
L 270.79771 -248.869677 
L 271.558614 -250.948985 
L 272.215868 -253.028293 
L 272.784798 -255.107601 
L 273.273983 -257.186909 
L 273.687997 -259.266216 
L 274.030737 -261.345524 
L 274.307501 -263.424832 
L 274.525335 -265.50414 
L 274.692284 -267.583447 
L 274.816507 -269.662755 
L 274.905841 -271.742063 
L 274.967843 -273.821371 
L 275.009924 -275.900679 
L 275.039185 -277.979986 
L 275.061872 -280.059294 
L 275.08266 -282.138602 
L 275.104163 -284.21791 
L 275.126943 -286.297217 
L 275.150038 -288.376525 
L 275.171794 -290.455833 
L 275.19066 -292.535141 
L 275.205703 -294.614449 
L 275.216749 -296.693756 
L 275.25214 -296.693756 
L 275.25214 -296.693756 
L 275.263186 -294.614449 
L 275.278229 -292.535141 
L 275.297095 -290.455833 
L 275.318851 -288.376525 
L 275.341946 -286.297217 
L 275.364726 -284.21791 
L 275.386229 -282.138602 
L 275.407017 -280.059294 
L 275.429703 -277.979986 
L 275.458965 -275.900679 
L 275.501046 -273.821371 
L 275.563048 -271.742063 
L 275.652382 -269.662755 
L 275.776605 -267.583447 
L 275.943554 -265.50414 
L 276.161388 -263.424832 
L 276.438152 -261.345524 
L 276.780892 -259.266216 
L 277.194905 -257.186909 
L 277.684091 -255.107601 
L 278.25302 -253.028293 
L 278.910274 -250.948985 
L 279.671179 -248.869677 
L 280.557298 -246.79037 
L 281.590738 -244.711062 
L 282.783636 -242.631754 
L 284.126212 -240.552446 
L 285.578855 -238.473139 
L 287.073287 -236.393831 
L 288.524624 -234.314523 
L 289.851272 -232.235215 
L 290.995506 -230.155907 
L 291.936496 -228.0766 
L 292.690466 -225.997292 
L 293.298202 -223.917984 
L 293.805649 -221.838676 
L 294.246002 -219.759369 
L 294.630291 -217.680061 
L 294.949078 -215.600753 
L 295.182845 -213.521445 
L 295.315477 -211.442137 
L 295.344904 -209.36283 
L 295.287136 -207.283522 
L 295.173083 -205.204214 
L 295.040311 -203.124906 
L 294.92326 -201.045599 
L 294.845315 -198.966291 
L 294.814778 -196.886983 
L 294.82508 -194.807675 
L 294.858217 -192.728368 
L 294.889871 -190.64906 
L 294.894789 -188.569752 
L 294.851356 -186.490444 
L 294.744474 -184.411136 
L 294.565916 -182.331829 
L 294.311783 -180.252521 
L 293.977753 -178.173213 
L 293.55419 -176.093905 
L 293.023948 -174.014598 
L 292.365041 -171.93529 
L 291.55829 -169.855982 
L 290.597495 -167.776674 
L 289.498046 -165.697366 
L 288.299974 -163.618059 
L 287.063405 -161.538751 
L 285.857186 -159.459443 
L 284.744054 -157.380135 
L 283.767092 -155.300828 
L 282.941875 -153.22152 
L 282.256725 -151.142212 
L 281.680651 -149.062904 
L 281.175761 -146.983596 
L 280.709546 -144.904289 
L 280.262799 -142.824981 
L 279.831073 -140.745673 
L 279.420328 -138.666365 
L 279.039621 -136.587058 
L 278.694433 -134.50775 
L 278.383296 -132.428442 
L 278.098503 -130.349134 
L 277.829758 -128.269826 
L 277.568594 -126.190519 
L 277.311459 -124.111211 
L 277.060363 -122.031903 
L 276.82121 -119.952595 
L 276.60086 -117.873288 
L 276.40427 -115.79398 
L 276.2328 -113.714672 
L 276.084127 -111.635364 
L 275.953564 -109.556057 
L 275.836042 -107.476749 
L 275.72792 -105.397441 
L 275.627915 -103.318133 
L 275.536948 -101.238825 
L 275.457152 -99.159518 
L 275.390596 -97.08021 
L 275.338278 -95.000902 
L 275.299717 -92.921594 
L 275.273144 -90.842287 
z
" style="stroke: #3f3f3f; stroke-width: 1.25"/>
    </defs>
    <g clip-path="url(#p94a718e096)">
     <use xlink:href="#me6c09ee10e" x="0" y="432" style="fill: #3274a1; stroke: #3f3f3f; stroke-width: 1.25"/>
    </g>
   </g>
   <g id="FillBetweenPolyCollection_4">
    <defs>
     <path id="m20c99616e4" d="M 364.1614 -58.599115 
L 364.143045 -58.599115 
L 364.135168 -61.283999 
L 364.123636 -63.968884 
L 364.108833 -66.653768 
L 364.092237 -69.338653 
L 364.076057 -72.023537 
L 364.062407 -74.708422 
L 364.052507 -77.393306 
L 364.04641 -80.078191 
L 364.043237 -82.763075 
L 364.041522 -85.44796 
L 364.039283 -88.132844 
L 364.033955 -90.817729 
L 364.02252 -93.502613 
L 364.001924 -96.187498 
L 363.969485 -98.872382 
L 363.922945 -101.557267 
L 363.860113 -104.242151 
L 363.778254 -106.927036 
L 363.673362 -109.61192 
L 363.539502 -112.296805 
L 363.368544 -114.981689 
L 363.150793 -117.666574 
L 362.87684 -120.351458 
L 362.540329 -123.036343 
L 362.140603 -125.721227 
L 361.683756 -128.406112 
L 361.181189 -131.090996 
L 360.646135 -133.775881 
L 360.089999 -136.460765 
L 359.520487 -139.14565 
L 358.942115 -141.830534 
L 358.35763 -144.515419 
L 357.768131 -147.200303 
L 357.171216 -149.885188 
L 356.558999 -152.570072 
L 355.918758 -155.254957 
L 355.236724 -157.939841 
L 354.502508 -160.624726 
L 353.711463 -163.30961 
L 352.865554 -165.994495 
L 351.975472 -168.679379 
L 351.063851 -171.364264 
L 350.164398 -174.049148 
L 349.312137 -176.734033 
L 348.528416 -179.418917 
L 347.812691 -182.103802 
L 347.150641 -184.788686 
L 346.53476 -187.473571 
L 345.981875 -190.158455 
L 345.533845 -192.84334 
L 345.240893 -195.528224 
L 345.138508 -198.213109 
L 345.229932 -200.897993 
L 345.480506 -203.582878 
L 345.825198 -206.267762 
L 346.187414 -208.952647 
L 346.502883 -211.637531 
L 346.738564 -214.322416 
L 346.898636 -217.0073 
L 347.018045 -219.692184 
L 347.151085 -222.377069 
L 347.361415 -225.061953 
L 347.71326 -227.746838 
L 348.25979 -230.431722 
L 349.028153 -233.116607 
L 350.007187 -235.801491 
L 351.145872 -238.486376 
L 352.36577 -241.17126 
L 353.583168 -243.856145 
L 354.731916 -246.541029 
L 355.778267 -249.225914 
L 356.722881 -251.910798 
L 357.590419 -254.595683 
L 358.411983 -257.280567 
L 359.208239 -259.965452 
L 359.980024 -262.650336 
L 360.709066 -265.335221 
L 361.36671 -268.020105 
L 361.925879 -270.70499 
L 362.371513 -273.389874 
L 362.706224 -276.074759 
L 362.949642 -278.759643 
L 363.131745 -281.444528 
L 363.282638 -284.129412 
L 363.423004 -286.814297 
L 363.559576 -289.499181 
L 363.687402 -292.184066 
L 363.796916 -294.86895 
L 363.881338 -297.553835 
L 363.940529 -300.238719 
L 363.980292 -302.923604 
L 364.008852 -305.608488 
L 364.033165 -308.293373 
L 364.056895 -310.978257 
L 364.080413 -313.663142 
L 364.102145 -316.348026 
L 364.120221 -319.032911 
L 364.133606 -321.717795 
L 364.142406 -324.40268 
L 364.162038 -324.40268 
L 364.162038 -324.40268 
L 364.170839 -321.717795 
L 364.184223 -319.032911 
L 364.202299 -316.348026 
L 364.224031 -313.663142 
L 364.24755 -310.978257 
L 364.271279 -308.293373 
L 364.295592 -305.608488 
L 364.324152 -302.923604 
L 364.363915 -300.238719 
L 364.423106 -297.553835 
L 364.507528 -294.86895 
L 364.617043 -292.184066 
L 364.744869 -289.499181 
L 364.88144 -286.814297 
L 365.021807 -284.129412 
L 365.172699 -281.444528 
L 365.354803 -278.759643 
L 365.59822 -276.074759 
L 365.932932 -273.389874 
L 366.378566 -270.70499 
L 366.937734 -268.020105 
L 367.595378 -265.335221 
L 368.32442 -262.650336 
L 369.096205 -259.965452 
L 369.892461 -257.280567 
L 370.714026 -254.595683 
L 371.581564 -251.910798 
L 372.526177 -249.225914 
L 373.572528 -246.541029 
L 374.721277 -243.856145 
L 375.938675 -241.17126 
L 377.158573 -238.486376 
L 378.297257 -235.801491 
L 379.276292 -233.116607 
L 380.044655 -230.431722 
L 380.591184 -227.746838 
L 380.94303 -225.061953 
L 381.153359 -222.377069 
L 381.286399 -219.692184 
L 381.405809 -217.0073 
L 381.565881 -214.322416 
L 381.801562 -211.637531 
L 382.117031 -208.952647 
L 382.479246 -206.267762 
L 382.823938 -203.582878 
L 383.074512 -200.897993 
L 383.165936 -198.213109 
L 383.063552 -195.528224 
L 382.770599 -192.84334 
L 382.322569 -190.158455 
L 381.769685 -187.473571 
L 381.153803 -184.788686 
L 380.491753 -182.103802 
L 379.776029 -179.418917 
L 378.992307 -176.734033 
L 378.140047 -174.049148 
L 377.240594 -171.364264 
L 376.328972 -168.679379 
L 375.43889 -165.994495 
L 374.592982 -163.30961 
L 373.801937 -160.624726 
L 373.067721 -157.939841 
L 372.385687 -155.254957 
L 371.745445 -152.570072 
L 371.133228 -149.885188 
L 370.536313 -147.200303 
L 369.946815 -144.515419 
L 369.362329 -141.830534 
L 368.783958 -139.14565 
L 368.214446 -136.460765 
L 367.658309 -133.775881 
L 367.123256 -131.090996 
L 366.620688 -128.406112 
L 366.163841 -125.721227 
L 365.764115 -123.036343 
L 365.427604 -120.351458 
L 365.153651 -117.666574 
L 364.935901 -114.981689 
L 364.764943 -112.296805 
L 364.631083 -109.61192 
L 364.526191 -106.927036 
L 364.444331 -104.242151 
L 364.3815 -101.557267 
L 364.334959 -98.872382 
L 364.30252 -96.187498 
L 364.281924 -93.502613 
L 364.270489 -90.817729 
L 364.265162 -88.132844 
L 364.262923 -85.44796 
L 364.261207 -82.763075 
L 364.258035 -80.078191 
L 364.251937 -77.393306 
L 364.242038 -74.708422 
L 364.228387 -72.023537 
L 364.212207 -69.338653 
L 364.195612 -66.653768 
L 364.180808 -63.968884 
L 364.169276 -61.283999 
L 364.1614 -58.599115 
z
" style="stroke: #3f3f3f; stroke-width: 1.25"/>
    </defs>
    <g clip-path="url(#p94a718e096)">
     <use xlink:href="#m20c99616e4" x="0" y="432" style="fill: #3274a1; stroke: #3f3f3f; stroke-width: 1.25"/>
    </g>
   </g>
   <g id="FillBetweenPolyCollection_5">
    <defs>
     <path id="mfbb3c1961b" d="M 453.158806 -114.312282 
L 452.981194 -114.312282 
L 452.938953 -116.182491 
L 452.8833 -118.0527 
L 452.813047 -119.922909 
L 452.728084 -121.793118 
L 452.629607 -123.663327 
L 452.520069 -125.533535 
L 452.402784 -127.403744 
L 452.281173 -129.273953 
L 452.157743 -131.144162 
L 452.033012 -133.014371 
L 451.904627 -134.88458 
L 451.766942 -136.754788 
L 451.611202 -138.624997 
L 451.426376 -140.495206 
L 451.20049 -142.365415 
L 450.922216 -144.235624 
L 450.582392 -146.105833 
L 450.175198 -147.976041 
L 449.698786 -149.84625 
L 449.155288 -151.716459 
L 448.550243 -153.586668 
L 447.891583 -155.456877 
L 447.188345 -157.327086 
L 446.44934 -159.197295 
L 445.681982 -161.067503 
L 444.891468 -162.937712 
L 444.080467 -164.807921 
L 443.24936 -166.67813 
L 442.396939 -168.548339 
L 441.521361 -170.418548 
L 440.621028 -172.288756 
L 439.695123 -174.158965 
L 438.74364 -176.029174 
L 437.767032 -177.899383 
L 436.765824 -179.769592 
L 435.740689 -181.639801 
L 434.693417 -183.510009 
L 433.628898 -185.380218 
L 432.5578 -187.250427 
L 431.499214 -189.120636 
L 430.482242 -190.990845 
L 429.545629 -192.861054 
L 428.73486 -194.731262 
L 428.096842 -196.601471 
L 427.672948 -198.47168 
L 427.491814 -200.341889 
L 427.563509 -202.212098 
L 427.876577 -204.082307 
L 428.398863 -205.952516 
L 429.082166 -207.822724 
L 429.869862 -209.692933 
L 430.705828 -211.563142 
L 431.542726 -213.433351 
L 432.347854 -215.30356 
L 433.105508 -217.173769 
L 433.815728 -219.043977 
L 434.490231 -220.914186 
L 435.146944 -222.784395 
L 435.804628 -224.654604 
L 436.478764 -226.524813 
L 437.179241 -228.395022 
L 437.909758 -230.26523 
L 438.668469 -232.135439 
L 439.44927 -234.005648 
L 440.243268 -235.875857 
L 441.040195 -237.746066 
L 441.829701 -239.616275 
L 442.602498 -241.486483 
L 443.351293 -243.356692 
L 444.071331 -245.226901 
L 444.760415 -247.09711 
L 445.418339 -248.967319 
L 446.045901 -250.837528 
L 446.643797 -252.707737 
L 447.211799 -254.577945 
L 447.748494 -256.448154 
L 448.251676 -258.318363 
L 448.719209 -260.188572 
L 449.149993 -262.058781 
L 449.54466 -263.92899 
L 449.905725 -265.799198 
L 450.237144 -267.669407 
L 450.543474 -269.539616 
L 450.828936 -271.409825 
L 451.09667 -273.280034 
L 451.348386 -275.150243 
L 451.584435 -277.020451 
L 451.804169 -278.89066 
L 452.006438 -280.760869 
L 452.190041 -282.631078 
L 452.35406 -284.501287 
L 452.498034 -286.371496 
L 452.622023 -288.241705 
L 452.726603 -290.111913 
L 452.812824 -291.982122 
L 452.882161 -293.852331 
L 452.936426 -295.72254 
L 452.977669 -297.592749 
L 453.008052 -299.462958 
L 453.131948 -299.462958 
L 453.131948 -299.462958 
L 453.162331 -297.592749 
L 453.203574 -295.72254 
L 453.257839 -293.852331 
L 453.327176 -291.982122 
L 453.413397 -290.111913 
L 453.517977 -288.241705 
L 453.641966 -286.371496 
L 453.78594 -284.501287 
L 453.949959 -282.631078 
L 454.133562 -280.760869 
L 454.335831 -278.89066 
L 454.555565 -277.020451 
L 454.791614 -275.150243 
L 455.04333 -273.280034 
L 455.311064 -271.409825 
L 455.596526 -269.539616 
L 455.902856 -267.669407 
L 456.234275 -265.799198 
L 456.59534 -263.92899 
L 456.990007 -262.058781 
L 457.420791 -260.188572 
L 457.888324 -258.318363 
L 458.391506 -256.448154 
L 458.928201 -254.577945 
L 459.496203 -252.707737 
L 460.094099 -250.837528 
L 460.721661 -248.967319 
L 461.379585 -247.09711 
L 462.068669 -245.226901 
L 462.788707 -243.356692 
L 463.537502 -241.486483 
L 464.310299 -239.616275 
L 465.099805 -237.746066 
L 465.896732 -235.875857 
L 466.69073 -234.005648 
L 467.471531 -232.135439 
L 468.230242 -230.26523 
L 468.960759 -228.395022 
L 469.661236 -226.524813 
L 470.335372 -224.654604 
L 470.993056 -222.784395 
L 471.649769 -220.914186 
L 472.324272 -219.043977 
L 473.034492 -217.173769 
L 473.792146 -215.30356 
L 474.597274 -213.433351 
L 475.434172 -211.563142 
L 476.270138 -209.692933 
L 477.057834 -207.822724 
L 477.741137 -205.952516 
L 478.263423 -204.082307 
L 478.576491 -202.212098 
L 478.648186 -200.341889 
L 478.467052 -198.47168 
L 478.043158 -196.601471 
L 477.40514 -194.731262 
L 476.594371 -192.861054 
L 475.657758 -190.990845 
L 474.640786 -189.120636 
L 473.5822 -187.250427 
L 472.511102 -185.380218 
L 471.446583 -183.510009 
L 470.399311 -181.639801 
L 469.374176 -179.769592 
L 468.372968 -177.899383 
L 467.39636 -176.029174 
L 466.444877 -174.158965 
L 465.518972 -172.288756 
L 464.618639 -170.418548 
L 463.743061 -168.548339 
L 462.89064 -166.67813 
L 462.059533 -164.807921 
L 461.248532 -162.937712 
L 460.458018 -161.067503 
L 459.69066 -159.197295 
L 458.951655 -157.327086 
L 458.248417 -155.456877 
L 457.589757 -153.586668 
L 456.984712 -151.716459 
L 456.441214 -149.84625 
L 455.964802 -147.976041 
L 455.557608 -146.105833 
L 455.217784 -144.235624 
L 454.93951 -142.365415 
L 454.713624 -140.495206 
L 454.528798 -138.624997 
L 454.373058 -136.754788 
L 454.235373 -134.88458 
L 454.106988 -133.014371 
L 453.982257 -131.144162 
L 453.858827 -129.273953 
L 453.737216 -127.403744 
L 453.619931 -125.533535 
L 453.510393 -123.663327 
L 453.411916 -121.793118 
L 453.326953 -119.922909 
L 453.2567 -118.0527 
L 453.201047 -116.182491 
L 453.158806 -114.312282 
z
" style="stroke: #3f3f3f; stroke-width: 1.25"/>
    </defs>
    <g clip-path="url(#p94a718e096)">
     <use xlink:href="#mfbb3c1961b" x="0" y="432" style="fill: #3274a1; stroke: #3f3f3f; stroke-width: 1.25"/>
    </g>
   </g>
   <g id="FillBetweenPolyCollection_6">
    <defs>
     <path id="m7536ee7726" d="M 542.006539 -58.467273 
L 541.969017 -58.467273 
L 541.953218 -61.109466 
L 541.930791 -63.751659 
L 541.903644 -66.393852 
L 541.876485 -69.036045 
L 541.855638 -71.678238 
L 541.846335 -74.320431 
L 541.849819 -76.962624 
L 541.862136 -79.604817 
L 541.875657 -82.24701 
L 541.882711 -84.889203 
L 541.879388 -87.531396 
L 541.867484 -90.173589 
L 541.853547 -92.815782 
L 541.845479 -95.457975 
L 541.848413 -98.100168 
L 541.861999 -100.742361 
L 541.8804 -103.384554 
L 541.894789 -106.026747 
L 541.896874 -108.66894 
L 541.881915 -111.311133 
L 541.85026 -113.953326 
L 541.807053 -116.595519 
L 541.759953 -119.237712 
L 541.715078 -121.879905 
L 541.672272 -124.522098 
L 541.621873 -127.164291 
L 541.545386 -129.806484 
L 541.420941 -132.448677 
L 541.231342 -135.09087 
L 540.969943 -137.733063 
L 540.640007 -140.375256 
L 540.247522 -143.017449 
L 539.79271 -145.659642 
L 539.266945 -148.301835 
L 538.657332 -150.944028 
L 537.95446 -153.586221 
L 537.156454 -156.228414 
L 536.26661 -158.870607 
L 535.288117 -161.5128 
L 534.220548 -164.154993 
L 533.058305 -166.797186 
L 531.787854 -169.439379 
L 530.38469 -172.081572 
L 528.818717 -174.723765 
L 527.076612 -177.365958 
L 525.195546 -180.008151 
L 523.28483 -182.650344 
L 521.509942 -185.292537 
L 520.036174 -187.93473 
L 518.961723 -190.576923 
L 518.284018 -193.219116 
L 517.922158 -195.861309 
L 517.777164 -198.503502 
L 517.784921 -201.145695 
L 517.927666 -203.787888 
L 518.207866 -206.430081 
L 518.618285 -209.072274 
L 519.138322 -211.714467 
L 519.75623 -214.35666 
L 520.490281 -216.998853 
L 521.383191 -219.641046 
L 522.469735 -222.283239 
L 523.74271 -224.925432 
L 525.144872 -227.567625 
L 526.592932 -230.209818 
L 528.013807 -232.852011 
L 529.365536 -235.494204 
L 530.631195 -238.136397 
L 531.798358 -240.77859 
L 532.847305 -243.420783 
L 533.759743 -246.062976 
L 534.538618 -248.70517 
L 535.218669 -251.347363 
L 535.855774 -253.989556 
L 536.501067 -256.631749 
L 537.177064 -259.273942 
L 537.869878 -261.916135 
L 538.539666 -264.558328 
L 539.141053 -267.200521 
L 539.642204 -269.842714 
L 540.034631 -272.484907 
L 540.331871 -275.1271 
L 540.560203 -277.769293 
L 540.746993 -280.411486 
L 540.911749 -283.053679 
L 541.062682 -285.695872 
L 541.198802 -288.338065 
L 541.315395 -290.980258 
L 541.409746 -293.622451 
L 541.484413 -296.264644 
L 541.546821 -298.906837 
L 541.6059 -301.54903 
L 541.667904 -304.191223 
L 541.733824 -306.833416 
L 541.799701 -309.475609 
L 541.859322 -312.117802 
L 541.907506 -314.759995 
L 541.942135 -317.402188 
L 541.964253 -320.044381 
L 542.011302 -320.044381 
L 542.011302 -320.044381 
L 542.033421 -317.402188 
L 542.068049 -314.759995 
L 542.116233 -312.117802 
L 542.175855 -309.475609 
L 542.241731 -306.833416 
L 542.307652 -304.191223 
L 542.369656 -301.54903 
L 542.428734 -298.906837 
L 542.491143 -296.264644 
L 542.56581 -293.622451 
L 542.660161 -290.980258 
L 542.776753 -288.338065 
L 542.912874 -285.695872 
L 543.063807 -283.053679 
L 543.228563 -280.411486 
L 543.415353 -277.769293 
L 543.643685 -275.1271 
L 543.940924 -272.484907 
L 544.333352 -269.842714 
L 544.834502 -267.200521 
L 545.43589 -264.558328 
L 546.105678 -261.916135 
L 546.798492 -259.273942 
L 547.474489 -256.631749 
L 548.119781 -253.989556 
L 548.756886 -251.347363 
L 549.436938 -248.70517 
L 550.215812 -246.062976 
L 551.128251 -243.420783 
L 552.177197 -240.77859 
L 553.344361 -238.136397 
L 554.610019 -235.494204 
L 555.961748 -232.852011 
L 557.382623 -230.209818 
L 558.830683 -227.567625 
L 560.232845 -224.925432 
L 561.50582 -222.283239 
L 562.592365 -219.641046 
L 563.485275 -216.998853 
L 564.219325 -214.35666 
L 564.837233 -211.714467 
L 565.357271 -209.072274 
L 565.767689 -206.430081 
L 566.047889 -203.787888 
L 566.190635 -201.145695 
L 566.198392 -198.503502 
L 566.053398 -195.861309 
L 565.691538 -193.219116 
L 565.013832 -190.576923 
L 563.939381 -187.93473 
L 562.465613 -185.292537 
L 560.690726 -182.650344 
L 558.78001 -180.008151 
L 556.898944 -177.365958 
L 555.156838 -174.723765 
L 553.590866 -172.081572 
L 552.187701 -169.439379 
L 550.917251 -166.797186 
L 549.755007 -164.154993 
L 548.687438 -161.5128 
L 547.708945 -158.870607 
L 546.819101 -156.228414 
L 546.021095 -153.586221 
L 545.318224 -150.944028 
L 544.70861 -148.301835 
L 544.182846 -145.659642 
L 543.728033 -143.017449 
L 543.335549 -140.375256 
L 543.005613 -137.733063 
L 542.744213 -135.09087 
L 542.554614 -132.448677 
L 542.43017 -129.806484 
L 542.353683 -127.164291 
L 542.303283 -124.522098 
L 542.260478 -121.879905 
L 542.215603 -119.237712 
L 542.168502 -116.595519 
L 542.125295 -113.953326 
L 542.093641 -111.311133 
L 542.078682 -108.66894 
L 542.080767 -106.026747 
L 542.095155 -103.384554 
L 542.113557 -100.742361 
L 542.127142 -98.100168 
L 542.130077 -95.457975 
L 542.122009 -92.815782 
L 542.108072 -90.173589 
L 542.096167 -87.531396 
L 542.092844 -84.889203 
L 542.099898 -82.24701 
L 542.11342 -79.604817 
L 542.125737 -76.962624 
L 542.129221 -74.320431 
L 542.119918 -71.678238 
L 542.099071 -69.036045 
L 542.071911 -66.393852 
L 542.044764 -63.751659 
L 542.022338 -61.109466 
L 542.006539 -58.467273 
z
" style="stroke: #3f3f3f; stroke-width: 1.25"/>
    </defs>
    <g clip-path="url(#p94a718e096)">
     <use xlink:href="#m7536ee7726" x="0" y="432" style="fill: #3274a1; stroke: #3f3f3f; stroke-width: 1.25"/>
    </g>
   </g>
   <g id="FillBetweenPolyCollection_7">
    <defs>
     <path id="m184bf45a28" d="M 630.923546 -102.786216 
L 630.887565 -102.786216 
L 630.874451 -104.791064 
L 630.856258 -106.795913 
L 630.833899 -108.800761 
L 630.809939 -110.80561 
L 630.788165 -112.810458 
L 630.772277 -114.815307 
L 630.764025 -116.820155 
L 630.7616 -118.825004 
L 630.759087 -120.829852 
L 630.747476 -122.834701 
L 630.717057 -124.839549 
L 630.66054 -126.844398 
L 630.575892 -128.849246 
L 630.467915 -130.854095 
L 630.347817 -132.858943 
L 630.230639 -134.863792 
L 630.131174 -136.86864 
L 630.059617 -138.873489 
L 630.01822 -140.878337 
L 629.99976 -142.883186 
L 629.987982 -144.888034 
L 629.959745 -146.892883 
L 629.888506 -148.897731 
L 629.748576 -150.90258 
L 629.519168 -152.907428 
L 629.18689 -154.912277 
L 628.74551 -156.917125 
L 628.193013 -158.921974 
L 627.527682 -160.926822 
L 626.746144 -162.931671 
L 625.845529 -164.936519 
L 624.829057 -166.941368 
L 623.710947 -168.946216 
L 622.51565 -170.951065 
L 621.269712 -172.955913 
L 619.990356 -174.960762 
L 618.678517 -176.96561 
L 617.321851 -178.970459 
L 615.906195 -180.975307 
L 614.427708 -182.980156 
L 612.897723 -184.985004 
L 611.338426 -186.989853 
L 609.774623 -188.994701 
L 608.229117 -190.99955 
L 606.725235 -193.004398 
L 605.293631 -195.009247 
L 603.977195 -197.014095 
L 602.830073 -199.018944 
L 601.911903 -201.023792 
L 601.281369 -203.028641 
L 600.991282 -205.033489 
L 601.083056 -207.038338 
L 601.576993 -209.043186 
L 602.459048 -211.048035 
L 603.671301 -213.052883 
L 605.115355 -215.057732 
L 606.67184 -217.06258 
L 608.229217 -219.067429 
L 609.70889 -221.072277 
L 611.075902 -223.077126 
L 612.332913 -225.081974 
L 613.503446 -227.086823 
L 614.613881 -229.091671 
L 615.68172 -231.09652 
L 616.712847 -233.101368 
L 617.705713 -235.106217 
L 618.657828 -237.111065 
L 619.570311 -239.115914 
L 620.44868 -241.120762 
L 621.300521 -243.125611 
L 622.131615 -245.130459 
L 622.941655 -247.135308 
L 623.720465 -249.140156 
L 624.446569 -251.145005 
L 625.09074 -253.149853 
L 625.625781 -255.154702 
L 626.03968 -257.15955 
L 626.345438 -259.164399 
L 626.580795 -261.169247 
L 626.796222 -263.174096 
L 627.036629 -265.178944 
L 627.326153 -267.183793 
L 627.66322 -269.188641 
L 628.02671 -271.19349 
L 628.388171 -273.198338 
L 628.723432 -275.203187 
L 629.019297 -277.208035 
L 629.27464 -279.212884 
L 629.497419 -281.217732 
L 629.699587 -283.222581 
L 629.891703 -285.227429 
L 630.078855 -287.232278 
L 630.259263 -289.237126 
L 630.425926 -291.241975 
L 630.57031 -293.246823 
L 630.686162 -295.251672 
L 630.771709 -297.25652 
L 630.829671 -299.261369 
L 630.865664 -301.266217 
L 630.945447 -301.266217 
L 630.945447 -301.266217 
L 630.98144 -299.261369 
L 631.039402 -297.25652 
L 631.124949 -295.251672 
L 631.240801 -293.246823 
L 631.385185 -291.241975 
L 631.551848 -289.237126 
L 631.732256 -287.232278 
L 631.919408 -285.227429 
L 632.111524 -283.222581 
L 632.313693 -281.217732 
L 632.536471 -279.212884 
L 632.791814 -277.208035 
L 633.087679 -275.203187 
L 633.42294 -273.198338 
L 633.784401 -271.19349 
L 634.147891 -269.188641 
L 634.484958 -267.183793 
L 634.774482 -265.178944 
L 635.014889 -263.174096 
L 635.230316 -261.169247 
L 635.465673 -259.164399 
L 635.771431 -257.15955 
L 636.185331 -255.154702 
L 636.720371 -253.149853 
L 637.364542 -251.145005 
L 638.090646 -249.140156 
L 638.869456 -247.135308 
L 639.679496 -245.130459 
L 640.51059 -243.125611 
L 641.362431 -241.120762 
L 642.2408 -239.115914 
L 643.153283 -237.111065 
L 644.105398 -235.106217 
L 645.098264 -233.101368 
L 646.129391 -231.09652 
L 647.19723 -229.091671 
L 648.307665 -227.086823 
L 649.478199 -225.081974 
L 650.735209 -223.077126 
L 652.102221 -221.072277 
L 653.581894 -219.067429 
L 655.139271 -217.06258 
L 656.695756 -215.057732 
L 658.13981 -213.052883 
L 659.352064 -211.048035 
L 660.234118 -209.043186 
L 660.728055 -207.038338 
L 660.819829 -205.033489 
L 660.529742 -203.028641 
L 659.899208 -201.023792 
L 658.981038 -199.018944 
L 657.833916 -197.014095 
L 656.51748 -195.009247 
L 655.085876 -193.004398 
L 653.581994 -190.99955 
L 652.036488 -188.994701 
L 650.472685 -186.989853 
L 648.913388 -184.985004 
L 647.383403 -182.980156 
L 645.904916 -180.975307 
L 644.48926 -178.970459 
L 643.132594 -176.96561 
L 641.820755 -174.960762 
L 640.541399 -172.955913 
L 639.295461 -170.951065 
L 638.100164 -168.946216 
L 636.982054 -166.941368 
L 635.965582 -164.936519 
L 635.064967 -162.931671 
L 634.283429 -160.926822 
L 633.618098 -158.921974 
L 633.065601 -156.917125 
L 632.624222 -154.912277 
L 632.291943 -152.907428 
L 632.062535 -150.90258 
L 631.922605 -148.897731 
L 631.851366 -146.892883 
L 631.823129 -144.888034 
L 631.811351 -142.883186 
L 631.792892 -140.878337 
L 631.751494 -138.873489 
L 631.679937 -136.86864 
L 631.580473 -134.863792 
L 631.463294 -132.858943 
L 631.343196 -130.854095 
L 631.23522 -128.849246 
L 631.150571 -126.844398 
L 631.094054 -124.839549 
L 631.063636 -122.834701 
L 631.052024 -120.829852 
L 631.049511 -118.825004 
L 631.047086 -116.820155 
L 631.038835 -114.815307 
L 631.022946 -112.810458 
L 631.001173 -110.80561 
L 630.977212 -108.800761 
L 630.954853 -106.795913 
L 630.93666 -104.791064 
L 630.923546 -102.786216 
z
" style="stroke: #3f3f3f; stroke-width: 1.25"/>
    </defs>
    <g clip-path="url(#p94a718e096)">
     <use xlink:href="#m184bf45a28" x="0" y="432" style="fill: #3274a1; stroke: #3f3f3f; stroke-width: 1.25"/>
    </g>
   </g>
   <g id="FillBetweenPolyCollection_8">
    <defs>
     <path id="md296374d56" d="M 719.893502 -138.692101 
L 719.753165 -138.692101 
L 719.702689 -140.520691 
L 719.628778 -142.349281 
L 719.528851 -144.177871 
L 719.404575 -146.006461 
L 719.263159 -147.835051 
L 719.117041 -149.663641 
L 718.98145 -151.492231 
L 718.870102 -153.320821 
L 718.790285 -155.149412 
L 718.73907 -156.978002 
L 718.702092 -158.806592 
L 718.655229 -160.635182 
L 718.568064 -162.463772 
L 718.40711 -164.292362 
L 718.137003 -166.120952 
L 717.719337 -167.949542 
L 717.110877 -169.778133 
L 716.264388 -171.606723 
L 715.135059 -173.435313 
L 713.693043 -175.263903 
L 711.938775 -177.092493 
L 709.914437 -178.921083 
L 707.704429 -180.749673 
L 705.421159 -182.578263 
L 703.178869 -184.406853 
L 701.064542 -186.235444 
L 699.117609 -188.064034 
L 697.327203 -189.892624 
L 695.648085 -191.721214 
L 694.027781 -193.549804 
L 692.432579 -195.378394 
L 690.861553 -197.206984 
L 689.34487 -199.035574 
L 687.931207 -200.864164 
L 686.673947 -202.692755 
L 685.624316 -204.521345 
L 684.833183 -206.349935 
L 684.356436 -208.178525 
L 684.256222 -210.007115 
L 684.593048 -211.835705 
L 685.409669 -213.664295 
L 686.71287 -215.492885 
L 688.460958 -217.321476 
L 690.562688 -219.150066 
L 692.88889 -220.978656 
L 695.293561 -222.807246 
L 697.638386 -224.635836 
L 699.814283 -226.464426 
L 701.755201 -228.293016 
L 703.441882 -230.121606 
L 704.895733 -231.950196 
L 706.165092 -233.778787 
L 707.307918 -235.607377 
L 708.376004 -237.435967 
L 709.405116 -239.264557 
L 710.41282 -241.093147 
L 711.402163 -242.921737 
L 712.367026 -244.750327 
L 713.295469 -246.578917 
L 714.170323 -248.407507 
L 714.96923 -250.236098 
L 715.667068 -252.064688 
L 716.24174 -253.893278 
L 716.681387 -255.721868 
L 716.98954 -257.550458 
L 717.185623 -259.379048 
L 717.300604 -261.207638 
L 717.369761 -263.036228 
L 717.425246 -264.864819 
L 717.49056 -266.693409 
L 717.57797 -268.521999 
L 717.689051 -270.350589 
L 717.817855 -272.179179 
L 717.955524 -274.007769 
L 718.094694 -275.836359 
L 718.232035 -277.664949 
L 718.36823 -279.493539 
L 718.505929 -281.32213 
L 718.647153 -283.15072 
L 718.791516 -284.97931 
L 718.935834 -286.8079 
L 719.074779 -288.63649 
L 719.201918 -290.46508 
L 719.310752 -292.29367 
L 719.39578 -294.12226 
L 719.453733 -295.950851 
L 719.484841 -297.779441 
L 719.493609 -299.608031 
L 719.488476 -301.436621 
L 719.48012 -303.265211 
L 719.478791 -305.093801 
L 719.491608 -306.922391 
L 719.520867 -308.750981 
L 719.563994 -310.579571 
L 719.615024 -312.408162 
L 719.666899 -314.236752 
L 719.713614 -316.065342 
L 719.751501 -317.893932 
L 719.779447 -319.722522 
L 719.867219 -319.722522 
L 719.867219 -319.722522 
L 719.895166 -317.893932 
L 719.933052 -316.065342 
L 719.979768 -314.236752 
L 720.031643 -312.408162 
L 720.082673 -310.579571 
L 720.125799 -308.750981 
L 720.155059 -306.922391 
L 720.167876 -305.093801 
L 720.166547 -303.265211 
L 720.158191 -301.436621 
L 720.153057 -299.608031 
L 720.161825 -297.779441 
L 720.192934 -295.950851 
L 720.250887 -294.12226 
L 720.335914 -292.29367 
L 720.444748 -290.46508 
L 720.571887 -288.63649 
L 720.710832 -286.8079 
L 720.855151 -284.97931 
L 720.999514 -283.15072 
L 721.140737 -281.32213 
L 721.278437 -279.493539 
L 721.414632 -277.664949 
L 721.551973 -275.836359 
L 721.691142 -274.007769 
L 721.828812 -272.179179 
L 721.957615 -270.350589 
L 722.068697 -268.521999 
L 722.156106 -266.693409 
L 722.22142 -264.864819 
L 722.276905 -263.036228 
L 722.346062 -261.207638 
L 722.461044 -259.379048 
L 722.657127 -257.550458 
L 722.96528 -255.721868 
L 723.404927 -253.893278 
L 723.979599 -252.064688 
L 724.677436 -250.236098 
L 725.476343 -248.407507 
L 726.351198 -246.578917 
L 727.279641 -244.750327 
L 728.244504 -242.921737 
L 729.233847 -241.093147 
L 730.241551 -239.264557 
L 731.270663 -237.435967 
L 732.338749 -235.607377 
L 733.481575 -233.778787 
L 734.750934 -231.950196 
L 736.204785 -230.121606 
L 737.891465 -228.293016 
L 739.832383 -226.464426 
L 742.00828 -224.635836 
L 744.353105 -222.807246 
L 746.757777 -220.978656 
L 749.083979 -219.150066 
L 751.185709 -217.321476 
L 752.933797 -215.492885 
L 754.236998 -213.664295 
L 755.053619 -211.835705 
L 755.390444 -210.007115 
L 755.290231 -208.178525 
L 754.813484 -206.349935 
L 754.02235 -204.521345 
L 752.97272 -202.692755 
L 751.715459 -200.864164 
L 750.301796 -199.035574 
L 748.785113 -197.206984 
L 747.214087 -195.378394 
L 745.618886 -193.549804 
L 743.998582 -191.721214 
L 742.319464 -189.892624 
L 740.529058 -188.064034 
L 738.582124 -186.235444 
L 736.467797 -184.406853 
L 734.225507 -182.578263 
L 731.942237 -180.749673 
L 729.73223 -178.921083 
L 727.707892 -177.092493 
L 725.953624 -175.263903 
L 724.511608 -173.435313 
L 723.382279 -171.606723 
L 722.53579 -169.778133 
L 721.927329 -167.949542 
L 721.509664 -166.120952 
L 721.239557 -164.292362 
L 721.078602 -162.463772 
L 720.991437 -160.635182 
L 720.944575 -158.806592 
L 720.907597 -156.978002 
L 720.856381 -155.149412 
L 720.776565 -153.320821 
L 720.665217 -151.492231 
L 720.529626 -149.663641 
L 720.383508 -147.835051 
L 720.242091 -146.006461 
L 720.117816 -144.177871 
L 720.017889 -142.349281 
L 719.943978 -140.520691 
L 719.893502 -138.692101 
z
" style="stroke: #3f3f3f; stroke-width: 1.25"/>
    </defs>
    <g clip-path="url(#p94a718e096)">
     <use xlink:href="#md296374d56" x="0" y="432" style="fill: #3274a1; stroke: #3f3f3f; stroke-width: 1.25"/>
    </g>
   </g>
   <g id="FillBetweenPolyCollection_9">
    <defs>
     <path id="m674408d885" d="M 808.7609 -59.35516 
L 808.721322 -59.35516 
L 808.700273 -62.680994 
L 808.669457 -66.006828 
L 808.634217 -69.332662 
L 808.605531 -72.658496 
L 808.594901 -75.98433 
L 808.60705 -79.310164 
L 808.63659 -82.635998 
L 808.671768 -85.961832 
L 808.701742 -89.287666 
L 808.721154 -92.6135 
L 808.729485 -95.939334 
L 808.727587 -99.265168 
L 808.715195 -102.591002 
L 808.691553 -105.916836 
L 808.658645 -109.24267 
L 808.62403 -112.568504 
L 808.599429 -115.894338 
L 808.59403 -119.220172 
L 808.606437 -122.546006 
L 808.620756 -125.87184 
L 808.608253 -129.197674 
L 808.532024 -132.523508 
L 808.353868 -135.849342 
L 808.045769 -139.175176 
L 807.604855 -142.50101 
L 807.062377 -145.826844 
L 806.475845 -149.152678 
L 805.904567 -152.478512 
L 805.382054 -155.804346 
L 804.900618 -159.13018 
L 804.412218 -162.456014 
L 803.83665 -165.781848 
L 803.06745 -169.107682 
L 801.980364 -172.433516 
L 800.46302 -175.75935 
L 798.473626 -179.085184 
L 796.100688 -182.411018 
L 793.571113 -185.736852 
L 791.178938 -189.062686 
L 789.169738 -192.38852 
L 787.654664 -195.714354 
L 786.600726 -199.040188 
L 785.884824 -202.366022 
L 785.371415 -205.691856 
L 784.98214 -209.01769 
L 784.731382 -212.343524 
L 784.706285 -215.669358 
L 785.003438 -218.995192 
L 785.674114 -222.321026 
L 786.717658 -225.64686 
L 788.105913 -228.972694 
L 789.793678 -232.298528 
L 791.701892 -235.624363 
L 793.701778 -238.950197 
L 795.629947 -242.276031 
L 797.335039 -245.601865 
L 798.730007 -248.927699 
L 799.818154 -252.253533 
L 800.678088 -255.579367 
L 801.421395 -258.905201 
L 802.151416 -262.231035 
L 802.938558 -265.556869 
L 803.807343 -268.882703 
L 804.729905 -272.208537 
L 805.633935 -275.534371 
L 806.432599 -278.860205 
L 807.064302 -282.186039 
L 807.516843 -285.511873 
L 807.822457 -288.837707 
L 808.033262 -292.163541 
L 808.195848 -295.489375 
L 808.336564 -298.815209 
L 808.459632 -302.141043 
L 808.5555 -305.466877 
L 808.613613 -308.792711 
L 808.632476 -312.118545 
L 808.622732 -315.444379 
L 808.603343 -318.770213 
L 808.593316 -322.096047 
L 808.603096 -325.421881 
L 808.630822 -328.747715 
L 808.666046 -332.073549 
L 808.697646 -335.399383 
L 808.719675 -338.725217 
L 808.731961 -342.051051 
L 808.737147 -345.376885 
L 808.737508 -348.702719 
L 808.733244 -352.028553 
L 808.722354 -355.354387 
L 808.702066 -358.680221 
L 808.671841 -362.006055 
L 808.636604 -365.331889 
L 808.607053 -368.657723 
L 808.594901 -371.983557 
L 808.605531 -375.309391 
L 808.634217 -378.635225 
L 808.669457 -381.961059 
L 808.700273 -385.286893 
L 808.721322 -388.612727 
L 808.7609 -388.612727 
L 808.7609 -388.612727 
L 808.78195 -385.286893 
L 808.812765 -381.961059 
L 808.848005 -378.635225 
L 808.876691 -375.309391 
L 808.887321 -371.983557 
L 808.875169 -368.657723 
L 808.845618 -365.331889 
L 808.810381 -362.006055 
L 808.780156 -358.680221 
L 808.759869 -355.354387 
L 808.748978 -352.028553 
L 808.744715 -348.702719 
L 808.745075 -345.376885 
L 808.750261 -342.051051 
L 808.762547 -338.725217 
L 808.784577 -335.399383 
L 808.816176 -332.073549 
L 808.8514 -328.747715 
L 808.879126 -325.421881 
L 808.888906 -322.096047 
L 808.878879 -318.770213 
L 808.85949 -315.444379 
L 808.849747 -312.118545 
L 808.868609 -308.792711 
L 808.926722 -305.466877 
L 809.02259 -302.141043 
L 809.145658 -298.815209 
L 809.286374 -295.489375 
L 809.44896 -292.163541 
L 809.659765 -288.837707 
L 809.965379 -285.511873 
L 810.41792 -282.186039 
L 811.049623 -278.860205 
L 811.848287 -275.534371 
L 812.752317 -272.208537 
L 813.67488 -268.882703 
L 814.543664 -265.556869 
L 815.330806 -262.231035 
L 816.060828 -258.905201 
L 816.804134 -255.579367 
L 817.664068 -252.253533 
L 818.752215 -248.927699 
L 820.147183 -245.601865 
L 821.852275 -242.276031 
L 823.780444 -238.950197 
L 825.780331 -235.624363 
L 827.688544 -232.298528 
L 829.37631 -228.972694 
L 830.764564 -225.64686 
L 831.808108 -222.321026 
L 832.478784 -218.995192 
L 832.775937 -215.669358 
L 832.75084 -212.343524 
L 832.500083 -209.01769 
L 832.110807 -205.691856 
L 831.597398 -202.366022 
L 830.881496 -199.040188 
L 829.827558 -195.714354 
L 828.312484 -192.38852 
L 826.303284 -189.062686 
L 823.911109 -185.736852 
L 821.381535 -182.411018 
L 819.008596 -179.085184 
L 817.019202 -175.75935 
L 815.501859 -172.433516 
L 814.414772 -169.107682 
L 813.645572 -165.781848 
L 813.070004 -162.456014 
L 812.581604 -159.13018 
L 812.100168 -155.804346 
L 811.577655 -152.478512 
L 811.006378 -149.152678 
L 810.419845 -145.826844 
L 809.877367 -142.50101 
L 809.436454 -139.175176 
L 809.128354 -135.849342 
L 808.950198 -132.523508 
L 808.873969 -129.197674 
L 808.861466 -125.87184 
L 808.875786 -122.546006 
L 808.888193 -119.220172 
L 808.882794 -115.894338 
L 808.858192 -112.568504 
L 808.823577 -109.24267 
L 808.79067 -105.916836 
L 808.767027 -102.591002 
L 808.754635 -99.265168 
L 808.752738 -95.939334 
L 808.761069 -92.6135 
L 808.78048 -89.287666 
L 808.810455 -85.961832 
L 808.845633 -82.635998 
L 808.875172 -79.310164 
L 808.887322 -75.98433 
L 808.876692 -72.658496 
L 808.848005 -69.332662 
L 808.812765 -66.006828 
L 808.78195 -62.680994 
L 808.7609 -59.35516 
z
" style="stroke: #3f3f3f; stroke-width: 1.25"/>
    </defs>
    <g clip-path="url(#p94a718e096)">
     <use xlink:href="#m674408d885" x="0" y="432" style="fill: #3274a1; stroke: #3f3f3f; stroke-width: 1.25"/>
    </g>
   </g>
   <g id="matplotlib.axis_1">
    <g id="xtick_1">
     <g id="line2d_1">
      <defs>
       <path id="m9f73f06d3e" d="M 0 0 
L 0 3.5 
" style="stroke: #000000; stroke-width: 0.8"/>
      </defs>
      <g>
       <use xlink:href="#m9f73f06d3e" x="97.398889" y="390.04" style="stroke: #000000; stroke-width: 0.8"/>
      </g>
     </g>
     <g id="text_1">
      <!-- 0 -->
      <g transform="translate(94.217639 404.638438) scale(0.1 -0.1)">
       <defs>
        <path id="DejaVuSans-30" d="M 2034 4250 
Q 1547 4250 1301 3770 
Q 1056 3291 1056 2328 
Q 1056 1369 1301 889 
Q 1547 409 2034 409 
Q 2525 409 2770 889 
Q 3016 1369 3016 2328 
Q 3016 3291 2770 3770 
Q 2525 4250 2034 4250 
z
M 2034 4750 
Q 2819 4750 3233 4129 
Q 3647 3509 3647 2328 
Q 3647 1150 3233 529 
Q 2819 -91 2034 -91 
Q 1250 -91 836 529 
Q 422 1150 422 2328 
Q 422 3509 836 4129 
Q 1250 4750 2034 4750 
z
" transform="scale(0.015625)"/>
       </defs>
       <use xlink:href="#DejaVuSans-30"/>
      </g>
     </g>
    </g>
    <g id="xtick_2">
     <g id="line2d_2">
      <g>
       <use xlink:href="#m9f73f06d3e" x="186.316667" y="390.04" style="stroke: #000000; stroke-width: 0.8"/>
      </g>
     </g>
     <g id="text_2">
      <!-- 1 -->
      <g transform="translate(183.135417 404.638438) scale(0.1 -0.1)">
       <defs>
        <path id="DejaVuSans-31" d="M 794 531 
L 1825 531 
L 1825 4091 
L 703 3866 
L 703 4441 
L 1819 4666 
L 2450 4666 
L 2450 531 
L 3481 531 
L 3481 0 
L 794 0 
L 794 531 
z
" transform="scale(0.015625)"/>
       </defs>
       <use xlink:href="#DejaVuSans-31"/>
      </g>
     </g>
    </g>
    <g id="xtick_3">
     <g id="line2d_3">
      <g>
       <use xlink:href="#m9f73f06d3e" x="275.234444" y="390.04" style="stroke: #000000; stroke-width: 0.8"/>
      </g>
     </g>
     <g id="text_3">
      <!-- 2 -->
      <g transform="translate(272.053194 404.638438) scale(0.1 -0.1)">
       <defs>
        <path id="DejaVuSans-32" d="M 1228 531 
L 3431 531 
L 3431 0 
L 469 0 
L 469 531 
Q 828 903 1448 1529 
Q 2069 2156 2228 2338 
Q 2531 2678 2651 2914 
Q 2772 3150 2772 3378 
Q 2772 3750 2511 3984 
Q 2250 4219 1831 4219 
Q 1534 4219 1204 4116 
Q 875 4013 500 3803 
L 500 4441 
Q 881 4594 1212 4672 
Q 1544 4750 1819 4750 
Q 2544 4750 2975 4387 
Q 3406 4025 3406 3419 
Q 3406 3131 3298 2873 
Q 3191 2616 2906 2266 
Q 2828 2175 2409 1742 
Q 1991 1309 1228 531 
z
" transform="scale(0.015625)"/>
       </defs>
       <use xlink:href="#DejaVuSans-32"/>
      </g>
     </g>
    </g>
    <g id="xtick_4">
     <g id="line2d_4">
      <g>
       <use xlink:href="#m9f73f06d3e" x="364.152222" y="390.04" style="stroke: #000000; stroke-width: 0.8"/>
      </g>
     </g>
     <g id="text_4">
      <!-- 3 -->
      <g transform="translate(360.970972 404.638438) scale(0.1 -0.1)">
       <defs>
        <path id="DejaVuSans-33" d="M 2597 2516 
Q 3050 2419 3304 2112 
Q 3559 1806 3559 1356 
Q 3559 666 3084 287 
Q 2609 -91 1734 -91 
Q 1441 -91 1130 -33 
Q 819 25 488 141 
L 488 750 
Q 750 597 1062 519 
Q 1375 441 1716 441 
Q 2309 441 2620 675 
Q 2931 909 2931 1356 
Q 2931 1769 2642 2001 
Q 2353 2234 1838 2234 
L 1294 2234 
L 1294 2753 
L 1863 2753 
Q 2328 2753 2575 2939 
Q 2822 3125 2822 3475 
Q 2822 3834 2567 4026 
Q 2313 4219 1838 4219 
Q 1578 4219 1281 4162 
Q 984 4106 628 3988 
L 628 4550 
Q 988 4650 1302 4700 
Q 1616 4750 1894 4750 
Q 2613 4750 3031 4423 
Q 3450 4097 3450 3541 
Q 3450 3153 3228 2886 
Q 3006 2619 2597 2516 
z
" transform="scale(0.015625)"/>
       </defs>
       <use xlink:href="#DejaVuSans-33"/>
      </g>
     </g>
    </g>
    <g id="xtick_5">
     <g id="line2d_5">
      <g>
       <use xlink:href="#m9f73f06d3e" x="453.07" y="390.04" style="stroke: #000000; stroke-width: 0.8"/>
      </g>
     </g>
     <g id="text_5">
      <!-- 4 -->
      <g transform="translate(449.88875 404.638438) scale(0.1 -0.1)">
       <defs>
        <path id="DejaVuSans-34" d="M 2419 4116 
L 825 1625 
L 2419 1625 
L 2419 4116 
z
M 2253 4666 
L 3047 4666 
L 3047 1625 
L 3713 1625 
L 3713 1100 
L 3047 1100 
L 3047 0 
L 2419 0 
L 2419 1100 
L 313 1100 
L 313 1709 
L 2253 4666 
z
" transform="scale(0.015625)"/>
       </defs>
       <use xlink:href="#DejaVuSans-34"/>
      </g>
     </g>
    </g>
    <g id="xtick_6">
     <g id="line2d_6">
      <g>
       <use xlink:href="#m9f73f06d3e" x="541.987778" y="390.04" style="stroke: #000000; stroke-width: 0.8"/>
      </g>
     </g>
     <g id="text_6">
      <!-- 5 -->
      <g transform="translate(538.806528 404.638438) scale(0.1 -0.1)">
       <defs>
        <path id="DejaVuSans-35" d="M 691 4666 
L 3169 4666 
L 3169 4134 
L 1269 4134 
L 1269 2991 
Q 1406 3038 1543 3061 
Q 1681 3084 1819 3084 
Q 2600 3084 3056 2656 
Q 3513 2228 3513 1497 
Q 3513 744 3044 326 
Q 2575 -91 1722 -91 
Q 1428 -91 1123 -41 
Q 819 9 494 109 
L 494 744 
Q 775 591 1075 516 
Q 1375 441 1709 441 
Q 2250 441 2565 725 
Q 2881 1009 2881 1497 
Q 2881 1984 2565 2268 
Q 2250 2553 1709 2553 
Q 1456 2553 1204 2497 
Q 953 2441 691 2322 
L 691 4666 
z
" transform="scale(0.015625)"/>
       </defs>
       <use xlink:href="#DejaVuSans-35"/>
      </g>
     </g>
    </g>
    <g id="xtick_7">
     <g id="line2d_7">
      <g>
       <use xlink:href="#m9f73f06d3e" x="630.905556" y="390.04" style="stroke: #000000; stroke-width: 0.8"/>
      </g>
     </g>
     <g id="text_7">
      <!-- 6 -->
      <g transform="translate(627.724306 404.638438) scale(0.1 -0.1)">
       <defs>
        <path id="DejaVuSans-36" d="M 2113 2584 
Q 1688 2584 1439 2293 
Q 1191 2003 1191 1497 
Q 1191 994 1439 701 
Q 1688 409 2113 409 
Q 2538 409 2786 701 
Q 3034 994 3034 1497 
Q 3034 2003 2786 2293 
Q 2538 2584 2113 2584 
z
M 3366 4563 
L 3366 3988 
Q 3128 4100 2886 4159 
Q 2644 4219 2406 4219 
Q 1781 4219 1451 3797 
Q 1122 3375 1075 2522 
Q 1259 2794 1537 2939 
Q 1816 3084 2150 3084 
Q 2853 3084 3261 2657 
Q 3669 2231 3669 1497 
Q 3669 778 3244 343 
Q 2819 -91 2113 -91 
Q 1303 -91 875 529 
Q 447 1150 447 2328 
Q 447 3434 972 4092 
Q 1497 4750 2381 4750 
Q 2619 4750 2861 4703 
Q 3103 4656 3366 4563 
z
" transform="scale(0.015625)"/>
       </defs>
       <use xlink:href="#DejaVuSans-36"/>
      </g>
     </g>
    </g>
    <g id="xtick_8">
     <g id="line2d_8">
      <g>
       <use xlink:href="#m9f73f06d3e" x="719.823333" y="390.04" style="stroke: #000000; stroke-width: 0.8"/>
      </g>
     </g>
     <g id="text_8">
      <!-- 7 -->
      <g transform="translate(716.642083 404.638438) scale(0.1 -0.1)">
       <defs>
        <path id="DejaVuSans-37" d="M 525 4666 
L 3525 4666 
L 3525 4397 
L 1831 0 
L 1172 0 
L 2766 4134 
L 525 4134 
L 525 4666 
z
" transform="scale(0.015625)"/>
       </defs>
       <use xlink:href="#DejaVuSans-37"/>
      </g>
     </g>
    </g>
    <g id="xtick_9">
     <g id="line2d_9">
      <g>
       <use xlink:href="#m9f73f06d3e" x="808.741111" y="390.04" style="stroke: #000000; stroke-width: 0.8"/>
      </g>
     </g>
     <g id="text_9">
      <!-- 8 -->
      <g transform="translate(805.559861 404.638438) scale(0.1 -0.1)">
       <defs>
        <path id="DejaVuSans-38" d="M 2034 2216 
Q 1584 2216 1326 1975 
Q 1069 1734 1069 1313 
Q 1069 891 1326 650 
Q 1584 409 2034 409 
Q 2484 409 2743 651 
Q 3003 894 3003 1313 
Q 3003 1734 2745 1975 
Q 2488 2216 2034 2216 
z
M 1403 2484 
Q 997 2584 770 2862 
Q 544 3141 544 3541 
Q 544 4100 942 4425 
Q 1341 4750 2034 4750 
Q 2731 4750 3128 4425 
Q 3525 4100 3525 3541 
Q 3525 3141 3298 2862 
Q 3072 2584 2669 2484 
Q 3125 2378 3379 2068 
Q 3634 1759 3634 1313 
Q 3634 634 3220 271 
Q 2806 -91 2034 -91 
Q 1263 -91 848 271 
Q 434 634 434 1313 
Q 434 1759 690 2068 
Q 947 2378 1403 2484 
z
M 1172 3481 
Q 1172 3119 1398 2916 
Q 1625 2713 2034 2713 
Q 2441 2713 2670 2916 
Q 2900 3119 2900 3481 
Q 2900 3844 2670 4047 
Q 2441 4250 2034 4250 
Q 1625 4250 1398 4047 
Q 1172 3844 1172 3481 
z
" transform="scale(0.015625)"/>
       </defs>
       <use xlink:href="#DejaVuSans-38"/>
      </g>
     </g>
    </g>
    <g id="text_10">
     <!-- Target Decile (0=lowest, 9=highest) -->
     <g transform="translate(362.346563 418.316562) scale(0.1 -0.1)">
      <defs>
       <path id="DejaVuSans-54" d="M -19 4666 
L 3928 4666 
L 3928 4134 
L 2272 4134 
L 2272 0 
L 1638 0 
L 1638 4134 
L -19 4134 
L -19 4666 
z
" transform="scale(0.015625)"/>
       <path id="DejaVuSans-61" d="M 2194 1759 
Q 1497 1759 1228 1600 
Q 959 1441 959 1056 
Q 959 750 1161 570 
Q 1363 391 1709 391 
Q 2188 391 2477 730 
Q 2766 1069 2766 1631 
L 2766 1759 
L 2194 1759 
z
M 3341 1997 
L 3341 0 
L 2766 0 
L 2766 531 
Q 2569 213 2275 61 
Q 1981 -91 1556 -91 
Q 1019 -91 701 211 
Q 384 513 384 1019 
Q 384 1609 779 1909 
Q 1175 2209 1959 2209 
L 2766 2209 
L 2766 2266 
Q 2766 2663 2505 2880 
Q 2244 3097 1772 3097 
Q 1472 3097 1187 3025 
Q 903 2953 641 2809 
L 641 3341 
Q 956 3463 1253 3523 
Q 1550 3584 1831 3584 
Q 2591 3584 2966 3190 
Q 3341 2797 3341 1997 
z
" transform="scale(0.015625)"/>
       <path id="DejaVuSans-72" d="M 2631 2963 
Q 2534 3019 2420 3045 
Q 2306 3072 2169 3072 
Q 1681 3072 1420 2755 
Q 1159 2438 1159 1844 
L 1159 0 
L 581 0 
L 581 3500 
L 1159 3500 
L 1159 2956 
Q 1341 3275 1631 3429 
Q 1922 3584 2338 3584 
Q 2397 3584 2469 3576 
Q 2541 3569 2628 3553 
L 2631 2963 
z
" transform="scale(0.015625)"/>
       <path id="DejaVuSans-67" d="M 2906 1791 
Q 2906 2416 2648 2759 
Q 2391 3103 1925 3103 
Q 1463 3103 1205 2759 
Q 947 2416 947 1791 
Q 947 1169 1205 825 
Q 1463 481 1925 481 
Q 2391 481 2648 825 
Q 2906 1169 2906 1791 
z
M 3481 434 
Q 3481 -459 3084 -895 
Q 2688 -1331 1869 -1331 
Q 1566 -1331 1297 -1286 
Q 1028 -1241 775 -1147 
L 775 -588 
Q 1028 -725 1275 -790 
Q 1522 -856 1778 -856 
Q 2344 -856 2625 -561 
Q 2906 -266 2906 331 
L 2906 616 
Q 2728 306 2450 153 
Q 2172 0 1784 0 
Q 1141 0 747 490 
Q 353 981 353 1791 
Q 353 2603 747 3093 
Q 1141 3584 1784 3584 
Q 2172 3584 2450 3431 
Q 2728 3278 2906 2969 
L 2906 3500 
L 3481 3500 
L 3481 434 
z
" transform="scale(0.015625)"/>
       <path id="DejaVuSans-65" d="M 3597 1894 
L 3597 1613 
L 953 1613 
Q 991 1019 1311 708 
Q 1631 397 2203 397 
Q 2534 397 2845 478 
Q 3156 559 3463 722 
L 3463 178 
Q 3153 47 2828 -22 
Q 2503 -91 2169 -91 
Q 1331 -91 842 396 
Q 353 884 353 1716 
Q 353 2575 817 3079 
Q 1281 3584 2069 3584 
Q 2775 3584 3186 3129 
Q 3597 2675 3597 1894 
z
M 3022 2063 
Q 3016 2534 2758 2815 
Q 2500 3097 2075 3097 
Q 1594 3097 1305 2825 
Q 1016 2553 972 2059 
L 3022 2063 
z
" transform="scale(0.015625)"/>
       <path id="DejaVuSans-74" d="M 1172 4494 
L 1172 3500 
L 2356 3500 
L 2356 3053 
L 1172 3053 
L 1172 1153 
Q 1172 725 1289 603 
Q 1406 481 1766 481 
L 2356 481 
L 2356 0 
L 1766 0 
Q 1100 0 847 248 
Q 594 497 594 1153 
L 594 3053 
L 172 3053 
L 172 3500 
L 594 3500 
L 594 4494 
L 1172 4494 
z
" transform="scale(0.015625)"/>
       <path id="DejaVuSans-20" transform="scale(0.015625)"/>
       <path id="DejaVuSans-44" d="M 1259 4147 
L 1259 519 
L 2022 519 
Q 2988 519 3436 956 
Q 3884 1394 3884 2338 
Q 3884 3275 3436 3711 
Q 2988 4147 2022 4147 
L 1259 4147 
z
M 628 4666 
L 1925 4666 
Q 3281 4666 3915 4102 
Q 4550 3538 4550 2338 
Q 4550 1131 3912 565 
Q 3275 0 1925 0 
L 628 0 
L 628 4666 
z
" transform="scale(0.015625)"/>
       <path id="DejaVuSans-63" d="M 3122 3366 
L 3122 2828 
Q 2878 2963 2633 3030 
Q 2388 3097 2138 3097 
Q 1578 3097 1268 2742 
Q 959 2388 959 1747 
Q 959 1106 1268 751 
Q 1578 397 2138 397 
Q 2388 397 2633 464 
Q 2878 531 3122 666 
L 3122 134 
Q 2881 22 2623 -34 
Q 2366 -91 2075 -91 
Q 1284 -91 818 406 
Q 353 903 353 1747 
Q 353 2603 823 3093 
Q 1294 3584 2113 3584 
Q 2378 3584 2631 3529 
Q 2884 3475 3122 3366 
z
" transform="scale(0.015625)"/>
       <path id="DejaVuSans-69" d="M 603 3500 
L 1178 3500 
L 1178 0 
L 603 0 
L 603 3500 
z
M 603 4863 
L 1178 4863 
L 1178 4134 
L 603 4134 
L 603 4863 
z
" transform="scale(0.015625)"/>
       <path id="DejaVuSans-6c" d="M 603 4863 
L 1178 4863 
L 1178 0 
L 603 0 
L 603 4863 
z
" transform="scale(0.015625)"/>
       <path id="DejaVuSans-28" d="M 1984 4856 
Q 1566 4138 1362 3434 
Q 1159 2731 1159 2009 
Q 1159 1288 1364 580 
Q 1569 -128 1984 -844 
L 1484 -844 
Q 1016 -109 783 600 
Q 550 1309 550 2009 
Q 550 2706 781 3412 
Q 1013 4119 1484 4856 
L 1984 4856 
z
" transform="scale(0.015625)"/>
       <path id="DejaVuSans-3d" d="M 678 2906 
L 4684 2906 
L 4684 2381 
L 678 2381 
L 678 2906 
z
M 678 1631 
L 4684 1631 
L 4684 1100 
L 678 1100 
L 678 1631 
z
" transform="scale(0.015625)"/>
       <path id="DejaVuSans-6f" d="M 1959 3097 
Q 1497 3097 1228 2736 
Q 959 2375 959 1747 
Q 959 1119 1226 758 
Q 1494 397 1959 397 
Q 2419 397 2687 759 
Q 2956 1122 2956 1747 
Q 2956 2369 2687 2733 
Q 2419 3097 1959 3097 
z
M 1959 3584 
Q 2709 3584 3137 3096 
Q 3566 2609 3566 1747 
Q 3566 888 3137 398 
Q 2709 -91 1959 -91 
Q 1206 -91 779 398 
Q 353 888 353 1747 
Q 353 2609 779 3096 
Q 1206 3584 1959 3584 
z
" transform="scale(0.015625)"/>
       <path id="DejaVuSans-77" d="M 269 3500 
L 844 3500 
L 1563 769 
L 2278 3500 
L 2956 3500 
L 3675 769 
L 4391 3500 
L 4966 3500 
L 4050 0 
L 3372 0 
L 2619 2869 
L 1863 0 
L 1184 0 
L 269 3500 
z
" transform="scale(0.015625)"/>
       <path id="DejaVuSans-73" d="M 2834 3397 
L 2834 2853 
Q 2591 2978 2328 3040 
Q 2066 3103 1784 3103 
Q 1356 3103 1142 2972 
Q 928 2841 928 2578 
Q 928 2378 1081 2264 
Q 1234 2150 1697 2047 
L 1894 2003 
Q 2506 1872 2764 1633 
Q 3022 1394 3022 966 
Q 3022 478 2636 193 
Q 2250 -91 1575 -91 
Q 1294 -91 989 -36 
Q 684 19 347 128 
L 347 722 
Q 666 556 975 473 
Q 1284 391 1588 391 
Q 1994 391 2212 530 
Q 2431 669 2431 922 
Q 2431 1156 2273 1281 
Q 2116 1406 1581 1522 
L 1381 1569 
Q 847 1681 609 1914 
Q 372 2147 372 2553 
Q 372 3047 722 3315 
Q 1072 3584 1716 3584 
Q 2034 3584 2315 3537 
Q 2597 3491 2834 3397 
z
" transform="scale(0.015625)"/>
       <path id="DejaVuSans-2c" d="M 750 794 
L 1409 794 
L 1409 256 
L 897 -744 
L 494 -744 
L 750 256 
L 750 794 
z
" transform="scale(0.015625)"/>
       <path id="DejaVuSans-39" d="M 703 97 
L 703 672 
Q 941 559 1184 500 
Q 1428 441 1663 441 
Q 2288 441 2617 861 
Q 2947 1281 2994 2138 
Q 2813 1869 2534 1725 
Q 2256 1581 1919 1581 
Q 1219 1581 811 2004 
Q 403 2428 403 3163 
Q 403 3881 828 4315 
Q 1253 4750 1959 4750 
Q 2769 4750 3195 4129 
Q 3622 3509 3622 2328 
Q 3622 1225 3098 567 
Q 2575 -91 1691 -91 
Q 1453 -91 1209 -44 
Q 966 3 703 97 
z
M 1959 2075 
Q 2384 2075 2632 2365 
Q 2881 2656 2881 3163 
Q 2881 3666 2632 3958 
Q 2384 4250 1959 4250 
Q 1534 4250 1286 3958 
Q 1038 3666 1038 3163 
Q 1038 2656 1286 2365 
Q 1534 2075 1959 2075 
z
" transform="scale(0.015625)"/>
       <path id="DejaVuSans-68" d="M 3513 2113 
L 3513 0 
L 2938 0 
L 2938 2094 
Q 2938 2591 2744 2837 
Q 2550 3084 2163 3084 
Q 1697 3084 1428 2787 
Q 1159 2491 1159 1978 
L 1159 0 
L 581 0 
L 581 4863 
L 1159 4863 
L 1159 2956 
Q 1366 3272 1645 3428 
Q 1925 3584 2291 3584 
Q 2894 3584 3203 3211 
Q 3513 2838 3513 2113 
z
" transform="scale(0.015625)"/>
       <path id="DejaVuSans-29" d="M 513 4856 
L 1013 4856 
Q 1481 4119 1714 3412 
Q 1947 2706 1947 2009 
Q 1947 1309 1714 600 
Q 1481 -109 1013 -844 
L 513 -844 
Q 928 -128 1133 580 
Q 1338 1288 1338 2009 
Q 1338 2731 1133 3434 
Q 928 4138 513 4856 
z
" transform="scale(0.015625)"/>
      </defs>
      <use xlink:href="#DejaVuSans-54"/>
      <use xlink:href="#DejaVuSans-61" transform="translate(44.583984 0)"/>
      <use xlink:href="#DejaVuSans-72" transform="translate(105.863281 0)"/>
      <use xlink:href="#DejaVuSans-67" transform="translate(145.226562 0)"/>
      <use xlink:href="#DejaVuSans-65" transform="translate(208.703125 0)"/>
      <use xlink:href="#DejaVuSans-74" transform="translate(270.226562 0)"/>
      <use xlink:href="#DejaVuSans-20" transform="translate(309.435547 0)"/>
      <use xlink:href="#DejaVuSans-44" transform="translate(341.222656 0)"/>
      <use xlink:href="#DejaVuSans-65" transform="translate(418.224609 0)"/>
      <use xlink:href="#DejaVuSans-63" transform="translate(479.748047 0)"/>
      <use xlink:href="#DejaVuSans-69" transform="translate(534.728516 0)"/>
      <use xlink:href="#DejaVuSans-6c" transform="translate(562.511719 0)"/>
      <use xlink:href="#DejaVuSans-65" transform="translate(590.294922 0)"/>
      <use xlink:href="#DejaVuSans-20" transform="translate(651.818359 0)"/>
      <use xlink:href="#DejaVuSans-28" transform="translate(683.605469 0)"/>
      <use xlink:href="#DejaVuSans-30" transform="translate(722.619141 0)"/>
      <use xlink:href="#DejaVuSans-3d" transform="translate(786.242188 0)"/>
      <use xlink:href="#DejaVuSans-6c" transform="translate(870.03125 0)"/>
      <use xlink:href="#DejaVuSans-6f" transform="translate(897.814453 0)"/>
      <use xlink:href="#DejaVuSans-77" transform="translate(958.996094 0)"/>
      <use xlink:href="#DejaVuSans-65" transform="translate(1040.783203 0)"/>
      <use xlink:href="#DejaVuSans-73" transform="translate(1102.306641 0)"/>
      <use xlink:href="#DejaVuSans-74" transform="translate(1154.40625 0)"/>
      <use xlink:href="#DejaVuSans-2c" transform="translate(1193.615234 0)"/>
      <use xlink:href="#DejaVuSans-20" transform="translate(1225.402344 0)"/>
      <use xlink:href="#DejaVuSans-39" transform="translate(1257.189453 0)"/>
      <use xlink:href="#DejaVuSans-3d" transform="translate(1320.8125 0)"/>
      <use xlink:href="#DejaVuSans-68" transform="translate(1404.601562 0)"/>
      <use xlink:href="#DejaVuSans-69" transform="translate(1467.980469 0)"/>
      <use xlink:href="#DejaVuSans-67" transform="translate(1495.763672 0)"/>
      <use xlink:href="#DejaVuSans-68" transform="translate(1559.240234 0)"/>
      <use xlink:href="#DejaVuSans-65" transform="translate(1622.619141 0)"/>
      <use xlink:href="#DejaVuSans-73" transform="translate(1684.142578 0)"/>
      <use xlink:href="#DejaVuSans-74" transform="translate(1736.242188 0)"/>
      <use xlink:href="#DejaVuSans-29" transform="translate(1775.451172 0)"/>
     </g>
    </g>
   </g>
   <g id="matplotlib.axis_2">
    <g id="ytick_1">
     <g id="line2d_10">
      <path d="M 52.94 353.197789 
L 853.2 353.197789 
" clip-path="url(#p94a718e096)" style="fill: none; stroke: #b0b0b0; stroke-opacity: 0.3; stroke-width: 0.8; stroke-linecap: square"/>
     </g>
     <g id="line2d_11">
      <defs>
       <path id="m590b6f495a" d="M 0 0 
L -3.5 0 
" style="stroke: #000000; stroke-width: 0.8"/>
      </defs>
      <g>
       <use xlink:href="#m590b6f495a" x="52.94" y="353.197789" style="stroke: #000000; stroke-width: 0.8"/>
      </g>
     </g>
     <g id="text_11">
      <!-- −20 -->
      <g transform="translate(24.835313 356.997007) scale(0.1 -0.1)">
       <defs>
        <path id="DejaVuSans-2212" d="M 678 2272 
L 4684 2272 
L 4684 1741 
L 678 1741 
L 678 2272 
z
" transform="scale(0.015625)"/>
       </defs>
       <use xlink:href="#DejaVuSans-2212"/>
       <use xlink:href="#DejaVuSans-32" transform="translate(83.789062 0)"/>
       <use xlink:href="#DejaVuSans-30" transform="translate(147.412109 0)"/>
      </g>
     </g>
    </g>
    <g id="ytick_2">
     <g id="line2d_12">
      <path d="M 52.94 290.900341 
L 853.2 290.900341 
" clip-path="url(#p94a718e096)" style="fill: none; stroke: #b0b0b0; stroke-opacity: 0.3; stroke-width: 0.8; stroke-linecap: square"/>
     </g>
     <g id="line2d_13">
      <g>
       <use xlink:href="#m590b6f495a" x="52.94" y="290.900341" style="stroke: #000000; stroke-width: 0.8"/>
      </g>
     </g>
     <g id="text_12">
      <!-- −10 -->
      <g transform="translate(24.835313 294.69956) scale(0.1 -0.1)">
       <use xlink:href="#DejaVuSans-2212"/>
       <use xlink:href="#DejaVuSans-31" transform="translate(83.789062 0)"/>
       <use xlink:href="#DejaVuSans-30" transform="translate(147.412109 0)"/>
      </g>
     </g>
    </g>
    <g id="ytick_3">
     <g id="line2d_14">
      <path d="M 52.94 228.602893 
L 853.2 228.602893 
" clip-path="url(#p94a718e096)" style="fill: none; stroke: #b0b0b0; stroke-opacity: 0.3; stroke-width: 0.8; stroke-linecap: square"/>
     </g>
     <g id="line2d_15">
      <g>
       <use xlink:href="#m590b6f495a" x="52.94" y="228.602893" style="stroke: #000000; stroke-width: 0.8"/>
      </g>
     </g>
     <g id="text_13">
      <!-- 0 -->
      <g transform="translate(39.5775 232.402112) scale(0.1 -0.1)">
       <use xlink:href="#DejaVuSans-30"/>
      </g>
     </g>
    </g>
    <g id="ytick_4">
     <g id="line2d_16">
      <path d="M 52.94 166.305446 
L 853.2 166.305446 
" clip-path="url(#p94a718e096)" style="fill: none; stroke: #b0b0b0; stroke-opacity: 0.3; stroke-width: 0.8; stroke-linecap: square"/>
     </g>
     <g id="line2d_17">
      <g>
       <use xlink:href="#m590b6f495a" x="52.94" y="166.305446" style="stroke: #000000; stroke-width: 0.8"/>
      </g>
     </g>
     <g id="text_14">
      <!-- 10 -->
      <g transform="translate(33.215 170.104665) scale(0.1 -0.1)">
       <use xlink:href="#DejaVuSans-31"/>
       <use xlink:href="#DejaVuSans-30" transform="translate(63.623047 0)"/>
      </g>
     </g>
    </g>
    <g id="ytick_5">
     <g id="line2d_18">
      <path d="M 52.94 104.007998 
L 853.2 104.007998 
" clip-path="url(#p94a718e096)" style="fill: none; stroke: #b0b0b0; stroke-opacity: 0.3; stroke-width: 0.8; stroke-linecap: square"/>
     </g>
     <g id="line2d_19">
      <g>
       <use xlink:href="#m590b6f495a" x="52.94" y="104.007998" style="stroke: #000000; stroke-width: 0.8"/>
      </g>
     </g>
     <g id="text_15">
      <!-- 20 -->
      <g transform="translate(33.215 107.807217) scale(0.1 -0.1)">
       <use xlink:href="#DejaVuSans-32"/>
       <use xlink:href="#DejaVuSans-30" transform="translate(63.623047 0)"/>
      </g>
     </g>
    </g>
    <g id="ytick_6">
     <g id="line2d_20">
      <path d="M 52.94 41.710551 
L 853.2 41.710551 
" clip-path="url(#p94a718e096)" style="fill: none; stroke: #b0b0b0; stroke-opacity: 0.3; stroke-width: 0.8; stroke-linecap: square"/>
     </g>
     <g id="line2d_21">
      <g>
       <use xlink:href="#m590b6f495a" x="52.94" y="41.710551" style="stroke: #000000; stroke-width: 0.8"/>
      </g>
     </g>
     <g id="text_16">
      <!-- 30 -->
      <g transform="translate(33.215 45.509769) scale(0.1 -0.1)">
       <use xlink:href="#DejaVuSans-33"/>
       <use xlink:href="#DejaVuSans-30" transform="translate(63.623047 0)"/>
      </g>
     </g>
    </g>
    <g id="text_17">
     <!-- Error (Actual - Predicted) -->
     <g transform="translate(18.755625 270.252187) rotate(-90) scale(0.1 -0.1)">
      <defs>
       <path id="DejaVuSans-45" d="M 628 4666 
L 3578 4666 
L 3578 4134 
L 1259 4134 
L 1259 2753 
L 3481 2753 
L 3481 2222 
L 1259 2222 
L 1259 531 
L 3634 531 
L 3634 0 
L 628 0 
L 628 4666 
z
" transform="scale(0.015625)"/>
       <path id="DejaVuSans-41" d="M 2188 4044 
L 1331 1722 
L 3047 1722 
L 2188 4044 
z
M 1831 4666 
L 2547 4666 
L 4325 0 
L 3669 0 
L 3244 1197 
L 1141 1197 
L 716 0 
L 50 0 
L 1831 4666 
z
" transform="scale(0.015625)"/>
       <path id="DejaVuSans-75" d="M 544 1381 
L 544 3500 
L 1119 3500 
L 1119 1403 
Q 1119 906 1312 657 
Q 1506 409 1894 409 
Q 2359 409 2629 706 
Q 2900 1003 2900 1516 
L 2900 3500 
L 3475 3500 
L 3475 0 
L 2900 0 
L 2900 538 
Q 2691 219 2414 64 
Q 2138 -91 1772 -91 
Q 1169 -91 856 284 
Q 544 659 544 1381 
z
M 1991 3584 
L 1991 3584 
z
" transform="scale(0.015625)"/>
       <path id="DejaVuSans-2d" d="M 313 2009 
L 1997 2009 
L 1997 1497 
L 313 1497 
L 313 2009 
z
" transform="scale(0.015625)"/>
       <path id="DejaVuSans-50" d="M 1259 4147 
L 1259 2394 
L 2053 2394 
Q 2494 2394 2734 2622 
Q 2975 2850 2975 3272 
Q 2975 3691 2734 3919 
Q 2494 4147 2053 4147 
L 1259 4147 
z
M 628 4666 
L 2053 4666 
Q 2838 4666 3239 4311 
Q 3641 3956 3641 3272 
Q 3641 2581 3239 2228 
Q 2838 1875 2053 1875 
L 1259 1875 
L 1259 0 
L 628 0 
L 628 4666 
z
" transform="scale(0.015625)"/>
       <path id="DejaVuSans-64" d="M 2906 2969 
L 2906 4863 
L 3481 4863 
L 3481 0 
L 2906 0 
L 2906 525 
Q 2725 213 2448 61 
Q 2172 -91 1784 -91 
Q 1150 -91 751 415 
Q 353 922 353 1747 
Q 353 2572 751 3078 
Q 1150 3584 1784 3584 
Q 2172 3584 2448 3432 
Q 2725 3281 2906 2969 
z
M 947 1747 
Q 947 1113 1208 752 
Q 1469 391 1925 391 
Q 2381 391 2643 752 
Q 2906 1113 2906 1747 
Q 2906 2381 2643 2742 
Q 2381 3103 1925 3103 
Q 1469 3103 1208 2742 
Q 947 2381 947 1747 
z
" transform="scale(0.015625)"/>
      </defs>
      <use xlink:href="#DejaVuSans-45"/>
      <use xlink:href="#DejaVuSans-72" transform="translate(63.183594 0)"/>
      <use xlink:href="#DejaVuSans-72" transform="translate(102.546875 0)"/>
      <use xlink:href="#DejaVuSans-6f" transform="translate(141.410156 0)"/>
      <use xlink:href="#DejaVuSans-72" transform="translate(202.591797 0)"/>
      <use xlink:href="#DejaVuSans-20" transform="translate(243.705078 0)"/>
      <use xlink:href="#DejaVuSans-28" transform="translate(275.492188 0)"/>
      <use xlink:href="#DejaVuSans-41" transform="translate(314.505859 0)"/>
      <use xlink:href="#DejaVuSans-63" transform="translate(381.164062 0)"/>
      <use xlink:href="#DejaVuSans-74" transform="translate(436.144531 0)"/>
      <use xlink:href="#DejaVuSans-75" transform="translate(475.353516 0)"/>
      <use xlink:href="#DejaVuSans-61" transform="translate(538.732422 0)"/>
      <use xlink:href="#DejaVuSans-6c" transform="translate(600.011719 0)"/>
      <use xlink:href="#DejaVuSans-20" transform="translate(627.794922 0)"/>
      <use xlink:href="#DejaVuSans-2d" transform="translate(659.582031 0)"/>
      <use xlink:href="#DejaVuSans-20" transform="translate(695.666016 0)"/>
      <use xlink:href="#DejaVuSans-50" transform="translate(727.453125 0)"/>
      <use xlink:href="#DejaVuSans-72" transform="translate(786.005859 0)"/>
      <use xlink:href="#DejaVuSans-65" transform="translate(824.869141 0)"/>
      <use xlink:href="#DejaVuSans-64" transform="translate(886.392578 0)"/>
      <use xlink:href="#DejaVuSans-69" transform="translate(949.869141 0)"/>
      <use xlink:href="#DejaVuSans-63" transform="translate(977.652344 0)"/>
      <use xlink:href="#DejaVuSans-74" transform="translate(1032.632812 0)"/>
      <use xlink:href="#DejaVuSans-65" transform="translate(1071.841797 0)"/>
      <use xlink:href="#DejaVuSans-64" transform="translate(1133.365234 0)"/>
      <use xlink:href="#DejaVuSans-29" transform="translate(1196.841797 0)"/>
     </g>
    </g>
   </g>
   <g id="line2d_22">
    <path d="M 97.398889 314.496179 
L 97.398889 166.870413 
" clip-path="url(#p94a718e096)" style="fill: none; stroke: #3f3f3f; stroke-width: 1.875; stroke-linecap: square"/>
   </g>
   <g id="line2d_23">
    <path d="M 97.398889 259.954567 
L 97.398889 221.675278 
" clip-path="url(#p94a718e096)" style="fill: none; stroke: #3f3f3f; stroke-width: 5.625; stroke-linecap: square"/>
   </g>
   <g id="line2d_24">
    <path d="M 97.398889 238.713015 
" clip-path="url(#p94a718e096)" style="fill: none; stroke: #3f3f3f; stroke-width: 1.5; stroke-linecap: square"/>
    <defs>
     <path id="m05e32c402b" d="M 2.34375 0 
L -2.34375 -0 
" style="stroke: #ffffff; stroke-width: 1.125"/>
    </defs>
    <g clip-path="url(#p94a718e096)">
     <use xlink:href="#m05e32c402b" x="97.398889" y="238.713015" style="fill: #ffffff; stroke: #ffffff; stroke-width: 1.125"/>
    </g>
   </g>
   <g id="line2d_25">
    <path d="M 186.316667 318.001551 
L 186.316667 164.269165 
" clip-path="url(#p94a718e096)" style="fill: none; stroke: #3f3f3f; stroke-width: 1.875; stroke-linecap: square"/>
   </g>
   <g id="line2d_26">
    <path d="M 186.316667 256.353566 
L 186.316667 214.088123 
" clip-path="url(#p94a718e096)" style="fill: none; stroke: #3f3f3f; stroke-width: 5.625; stroke-linecap: square"/>
   </g>
   <g id="line2d_27">
    <path d="M 186.316667 233.714277 
" clip-path="url(#p94a718e096)" style="fill: none; stroke: #3f3f3f; stroke-width: 1.5; stroke-linecap: square"/>
    <g clip-path="url(#p94a718e096)">
     <use xlink:href="#m05e32c402b" x="186.316667" y="233.714277" style="fill: #ffffff; stroke: #ffffff; stroke-width: 1.125"/>
    </g>
   </g>
   <g id="line2d_28">
    <path d="M 275.234444 320.355315 
L 275.234444 151.459837 
" clip-path="url(#p94a718e096)" style="fill: none; stroke: #3f3f3f; stroke-width: 1.875; stroke-linecap: square"/>
   </g>
   <g id="line2d_29">
    <path d="M 275.234444 257.381278 
L 275.234444 214.522801 
" clip-path="url(#p94a718e096)" style="fill: none; stroke: #3f3f3f; stroke-width: 5.625; stroke-linecap: square"/>
   </g>
   <g id="line2d_30">
    <path d="M 275.234444 234.820387 
" clip-path="url(#p94a718e096)" style="fill: none; stroke: #3f3f3f; stroke-width: 1.5; stroke-linecap: square"/>
    <g clip-path="url(#p94a718e096)">
     <use xlink:href="#m05e32c402b" x="275.234444" y="234.820387" style="fill: #ffffff; stroke: #ffffff; stroke-width: 1.125"/>
    </g>
   </g>
   <g id="line2d_31">
    <path d="M 364.152222 324.556182 
L 364.152222 142.269262 
" clip-path="url(#p94a718e096)" style="fill: none; stroke: #3f3f3f; stroke-width: 1.875; stroke-linecap: square"/>
   </g>
   <g id="line2d_32">
    <path d="M 364.152222 253.666266 
L 364.152222 205.34702 
" clip-path="url(#p94a718e096)" style="fill: none; stroke: #3f3f3f; stroke-width: 5.625; stroke-linecap: square"/>
   </g>
   <g id="line2d_33">
    <path d="M 364.152222 229.970177 
" clip-path="url(#p94a718e096)" style="fill: none; stroke: #3f3f3f; stroke-width: 1.5; stroke-linecap: square"/>
    <g clip-path="url(#p94a718e096)">
     <use xlink:href="#m05e32c402b" x="364.152222" y="229.970177" style="fill: #ffffff; stroke: #ffffff; stroke-width: 1.125"/>
    </g>
   </g>
   <g id="line2d_34">
    <path d="M 453.07 296.017238 
L 453.07 163.28303 
" clip-path="url(#p94a718e096)" style="fill: none; stroke: #3f3f3f; stroke-width: 1.875; stroke-linecap: square"/>
   </g>
   <g id="line2d_35">
    <path d="M 453.07 244.518342 
L 453.07 209.482991 
" clip-path="url(#p94a718e096)" style="fill: none; stroke: #3f3f3f; stroke-width: 5.625; stroke-linecap: square"/>
   </g>
   <g id="line2d_36">
    <path d="M 453.07 228.887332 
" clip-path="url(#p94a718e096)" style="fill: none; stroke: #3f3f3f; stroke-width: 1.5; stroke-linecap: square"/>
    <g clip-path="url(#p94a718e096)">
     <use xlink:href="#m05e32c402b" x="453.07" y="228.887332" style="fill: #ffffff; stroke: #ffffff; stroke-width: 1.125"/>
    </g>
   </g>
   <g id="line2d_37">
    <path d="M 541.987778 291.429246 
L 541.987778 157.784462 
" clip-path="url(#p94a718e096)" style="fill: none; stroke: #3f3f3f; stroke-width: 1.875; stroke-linecap: square"/>
   </g>
   <g id="line2d_38">
    <path d="M 541.987778 244.394761 
L 541.987778 208.603211 
" clip-path="url(#p94a718e096)" style="fill: none; stroke: #3f3f3f; stroke-width: 5.625; stroke-linecap: square"/>
   </g>
   <g id="line2d_39">
    <path d="M 541.987778 227.542363 
" clip-path="url(#p94a718e096)" style="fill: none; stroke: #3f3f3f; stroke-width: 1.5; stroke-linecap: square"/>
    <g clip-path="url(#p94a718e096)">
     <use xlink:href="#m05e32c402b" x="541.987778" y="227.542363" style="fill: #ffffff; stroke: #ffffff; stroke-width: 1.125"/>
    </g>
   </g>
   <g id="line2d_40">
    <path d="M 630.905556 285.991527 
L 630.905556 160.586236 
" clip-path="url(#p94a718e096)" style="fill: none; stroke: #3f3f3f; stroke-width: 1.875; stroke-linecap: square"/>
   </g>
   <g id="line2d_41">
    <path d="M 630.905556 238.852549 
L 630.905556 207.223579 
" clip-path="url(#p94a718e096)" style="fill: none; stroke: #3f3f3f; stroke-width: 5.625; stroke-linecap: square"/>
   </g>
   <g id="line2d_42">
    <path d="M 630.905556 224.19632 
" clip-path="url(#p94a718e096)" style="fill: none; stroke: #3f3f3f; stroke-width: 1.5; stroke-linecap: square"/>
    <g clip-path="url(#p94a718e096)">
     <use xlink:href="#m05e32c402b" x="630.905556" y="224.19632" style="fill: #ffffff; stroke: #ffffff; stroke-width: 1.125"/>
    </g>
   </g>
   <g id="line2d_43">
    <path d="M 719.823333 264.571029 
L 719.823333 174.865772 
" clip-path="url(#p94a718e096)" style="fill: none; stroke: #3f3f3f; stroke-width: 1.875; stroke-linecap: square"/>
   </g>
   <g id="line2d_44">
    <path d="M 719.823333 234.332483 
L 719.823333 209.949633 
" clip-path="url(#p94a718e096)" style="fill: none; stroke: #3f3f3f; stroke-width: 5.625; stroke-linecap: square"/>
   </g>
   <g id="line2d_45">
    <path d="M 719.823333 222.491473 
" clip-path="url(#p94a718e096)" style="fill: none; stroke: #3f3f3f; stroke-width: 1.5; stroke-linecap: square"/>
    <g clip-path="url(#p94a718e096)">
     <use xlink:href="#m05e32c402b" x="719.823333" y="222.491473" style="fill: #ffffff; stroke: #ffffff; stroke-width: 1.125"/>
    </g>
   </g>
   <g id="line2d_46">
    <path d="M 808.741111 285.564668 
L 808.741111 145.586098 
" clip-path="url(#p94a718e096)" style="fill: none; stroke: #3f3f3f; stroke-width: 1.875; stroke-linecap: square"/>
   </g>
   <g id="line2d_47">
    <path d="M 808.741111 236.572087 
L 808.741111 199.370677 
" clip-path="url(#p94a718e096)" style="fill: none; stroke: #3f3f3f; stroke-width: 5.625; stroke-linecap: square"/>
   </g>
   <g id="line2d_48">
    <path d="M 808.741111 217.984744 
" clip-path="url(#p94a718e096)" style="fill: none; stroke: #3f3f3f; stroke-width: 1.5; stroke-linecap: square"/>
    <g clip-path="url(#p94a718e096)">
     <use xlink:href="#m05e32c402b" x="808.741111" y="217.984744" style="fill: #ffffff; stroke: #ffffff; stroke-width: 1.125"/>
    </g>
   </g>
   <g id="line2d_49">
    <path d="M 52.94 228.602893 
L 853.2 228.602893 
" clip-path="url(#p94a718e096)" style="fill: none; stroke-dasharray: 3.7,1.6; stroke-dashoffset: 0; stroke: #ff0000; stroke-opacity: 0.7"/>
   </g>
   <g id="patch_3">
    <path d="M 52.94 390.04 
L 52.94 26.88 
" style="fill: none; stroke: #000000; stroke-width: 0.8; stroke-linejoin: miter; stroke-linecap: square"/>
   </g>
   <g id="patch_4">
    <path d="M 853.2 390.04 
L 853.2 26.88 
" style="fill: none; stroke: #000000; stroke-width: 0.8; stroke-linejoin: miter; stroke-linecap: square"/>
   </g>
   <g id="patch_5">
    <path d="M 52.94 390.04 
L 853.2 390.04 
" style="fill: none; stroke: #000000; stroke-width: 0.8; stroke-linejoin: miter; stroke-linecap: square"/>
   </g>
   <g id="patch_6">
    <path d="M 52.94 26.88 
L 853.2 26.88 
" style="fill: none; stroke: #000000; stroke-width: 0.8; stroke-linejoin: miter; stroke-linecap: square"/>
   </g>
   <g id="text_18">
    <!-- attention_mlp_train: Error Distribution by Target Decile -->
    <g transform="translate(288.672812 20.88) scale(0.12 -0.12)">
     <defs>
      <path id="DejaVuSans-6e" d="M 3513 2113 
L 3513 0 
L 2938 0 
L 2938 2094 
Q 2938 2591 2744 2837 
Q 2550 3084 2163 3084 
Q 1697 3084 1428 2787 
Q 1159 2491 1159 1978 
L 1159 0 
L 581 0 
L 581 3500 
L 1159 3500 
L 1159 2956 
Q 1366 3272 1645 3428 
Q 1925 3584 2291 3584 
Q 2894 3584 3203 3211 
Q 3513 2838 3513 2113 
z
" transform="scale(0.015625)"/>
      <path id="DejaVuSans-5f" d="M 3263 -1063 
L 3263 -1509 
L -63 -1509 
L -63 -1063 
L 3263 -1063 
z
" transform="scale(0.015625)"/>
      <path id="DejaVuSans-6d" d="M 3328 2828 
Q 3544 3216 3844 3400 
Q 4144 3584 4550 3584 
Q 5097 3584 5394 3201 
Q 5691 2819 5691 2113 
L 5691 0 
L 5113 0 
L 5113 2094 
Q 5113 2597 4934 2840 
Q 4756 3084 4391 3084 
Q 3944 3084 3684 2787 
Q 3425 2491 3425 1978 
L 3425 0 
L 2847 0 
L 2847 2094 
Q 2847 2600 2669 2842 
Q 2491 3084 2119 3084 
Q 1678 3084 1418 2786 
Q 1159 2488 1159 1978 
L 1159 0 
L 581 0 
L 581 3500 
L 1159 3500 
L 1159 2956 
Q 1356 3278 1631 3431 
Q 1906 3584 2284 3584 
Q 2666 3584 2933 3390 
Q 3200 3197 3328 2828 
z
" transform="scale(0.015625)"/>
      <path id="DejaVuSans-70" d="M 1159 525 
L 1159 -1331 
L 581 -1331 
L 581 3500 
L 1159 3500 
L 1159 2969 
Q 1341 3281 1617 3432 
Q 1894 3584 2278 3584 
Q 2916 3584 3314 3078 
Q 3713 2572 3713 1747 
Q 3713 922 3314 415 
Q 2916 -91 2278 -91 
Q 1894 -91 1617 61 
Q 1341 213 1159 525 
z
M 3116 1747 
Q 3116 2381 2855 2742 
Q 2594 3103 2138 3103 
Q 1681 3103 1420 2742 
Q 1159 2381 1159 1747 
Q 1159 1113 1420 752 
Q 1681 391 2138 391 
Q 2594 391 2855 752 
Q 3116 1113 3116 1747 
z
" transform="scale(0.015625)"/>
      <path id="DejaVuSans-3a" d="M 750 794 
L 1409 794 
L 1409 0 
L 750 0 
L 750 794 
z
M 750 3309 
L 1409 3309 
L 1409 2516 
L 750 2516 
L 750 3309 
z
" transform="scale(0.015625)"/>
      <path id="DejaVuSans-62" d="M 3116 1747 
Q 3116 2381 2855 2742 
Q 2594 3103 2138 3103 
Q 1681 3103 1420 2742 
Q 1159 2381 1159 1747 
Q 1159 1113 1420 752 
Q 1681 391 2138 391 
Q 2594 391 2855 752 
Q 3116 1113 3116 1747 
z
M 1159 2969 
Q 1341 3281 1617 3432 
Q 1894 3584 2278 3584 
Q 2916 3584 3314 3078 
Q 3713 2572 3713 1747 
Q 3713 922 3314 415 
Q 2916 -91 2278 -91 
Q 1894 -91 1617 61 
Q 1341 213 1159 525 
L 1159 0 
L 581 0 
L 581 4863 
L 1159 4863 
L 1159 2969 
z
" transform="scale(0.015625)"/>
      <path id="DejaVuSans-79" d="M 2059 -325 
Q 1816 -950 1584 -1140 
Q 1353 -1331 966 -1331 
L 506 -1331 
L 506 -850 
L 844 -850 
Q 1081 -850 1212 -737 
Q 1344 -625 1503 -206 
L 1606 56 
L 191 3500 
L 800 3500 
L 1894 763 
L 2988 3500 
L 3597 3500 
L 2059 -325 
z
" transform="scale(0.015625)"/>
     </defs>
     <use xlink:href="#DejaVuSans-61"/>
     <use xlink:href="#DejaVuSans-74" transform="translate(61.279297 0)"/>
     <use xlink:href="#DejaVuSans-74" transform="translate(100.488281 0)"/>
     <use xlink:href="#DejaVuSans-65" transform="translate(139.697266 0)"/>
     <use xlink:href="#DejaVuSans-6e" transform="translate(201.220703 0)"/>
     <use xlink:href="#DejaVuSans-74" transform="translate(264.599609 0)"/>
     <use xlink:href="#DejaVuSans-69" transform="translate(303.808594 0)"/>
     <use xlink:href="#DejaVuSans-6f" transform="translate(331.591797 0)"/>
     <use xlink:href="#DejaVuSans-6e" transform="translate(392.773438 0)"/>
     <use xlink:href="#DejaVuSans-5f" transform="translate(456.152344 0)"/>
     <use xlink:href="#DejaVuSans-6d" transform="translate(506.152344 0)"/>
     <use xlink:href="#DejaVuSans-6c" transform="translate(603.564453 0)"/>
     <use xlink:href="#DejaVuSans-70" transform="translate(631.347656 0)"/>
     <use xlink:href="#DejaVuSans-5f" transform="translate(694.824219 0)"/>
     <use xlink:href="#DejaVuSans-74" transform="translate(744.824219 0)"/>
     <use xlink:href="#DejaVuSans-72" transform="translate(784.033203 0)"/>
     <use xlink:href="#DejaVuSans-61" transform="translate(825.146484 0)"/>
     <use xlink:href="#DejaVuSans-69" transform="translate(886.425781 0)"/>
     <use xlink:href="#DejaVuSans-6e" transform="translate(914.208984 0)"/>
     <use xlink:href="#DejaVuSans-3a" transform="translate(977.587891 0)"/>
     <use xlink:href="#DejaVuSans-20" transform="translate(1011.279297 0)"/>
     <use xlink:href="#DejaVuSans-45" transform="translate(1043.066406 0)"/>
     <use xlink:href="#DejaVuSans-72" transform="translate(1106.25 0)"/>
     <use xlink:href="#DejaVuSans-72" transform="translate(1145.613281 0)"/>
     <use xlink:href="#DejaVuSans-6f" transform="translate(1184.476562 0)"/>
     <use xlink:href="#DejaVuSans-72" transform="translate(1245.658203 0)"/>
     <use xlink:href="#DejaVuSans-20" transform="translate(1286.771484 0)"/>
     <use xlink:href="#DejaVuSans-44" transform="translate(1318.558594 0)"/>
     <use xlink:href="#DejaVuSans-69" transform="translate(1395.560547 0)"/>
     <use xlink:href="#DejaVuSans-73" transform="translate(1423.34375 0)"/>
     <use xlink:href="#DejaVuSans-74" transform="translate(1475.443359 0)"/>
     <use xlink:href="#DejaVuSans-72" transform="translate(1514.652344 0)"/>
     <use xlink:href="#DejaVuSans-69" transform="translate(1555.765625 0)"/>
     <use xlink:href="#DejaVuSans-62" transform="translate(1583.548828 0)"/>
     <use xlink:href="#DejaVuSans-75" transform="translate(1647.025391 0)"/>
     <use xlink:href="#DejaVuSans-74" transform="translate(1710.404297 0)"/>
     <use xlink:href="#DejaVuSans-69" transform="translate(1749.613281 0)"/>
     <use xlink:href="#DejaVuSans-6f" transform="translate(1777.396484 0)"/>
     <use xlink:href="#DejaVuSans-6e" transform="translate(1838.578125 0)"/>
     <use xlink:href="#DejaVuSans-20" transform="translate(1901.957031 0)"/>
     <use xlink:href="#DejaVuSans-62" transform="translate(1933.744141 0)"/>
     <use xlink:href="#DejaVuSans-79" transform="translate(1997.220703 0)"/>
     <use xlink:href="#DejaVuSans-20" transform="translate(2056.400391 0)"/>
     <use xlink:href="#DejaVuSans-54" transform="translate(2088.1875 0)"/>
     <use xlink:href="#DejaVuSans-61" transform="translate(2132.771484 0)"/>
     <use xlink:href="#DejaVuSans-72" transform="translate(2194.050781 0)"/>
     <use xlink:href="#DejaVuSans-67" transform="translate(2233.414062 0)"/>
     <use xlink:href="#DejaVuSans-65" transform="translate(2296.890625 0)"/>
     <use xlink:href="#DejaVuSans-74" transform="translate(2358.414062 0)"/>
     <use xlink:href="#DejaVuSans-20" transform="translate(2397.623047 0)"/>
     <use xlink:href="#DejaVuSans-44" transform="translate(2429.410156 0)"/>
     <use xlink:href="#DejaVuSans-65" transform="translate(2506.412109 0)"/>
     <use xlink:href="#DejaVuSans-63" transform="translate(2567.935547 0)"/>
     <use xlink:href="#DejaVuSans-69" transform="translate(2622.916016 0)"/>
     <use xlink:href="#DejaVuSans-6c" transform="translate(2650.699219 0)"/>
     <use xlink:href="#DejaVuSans-65" transform="translate(2678.482422 0)"/>
    </g>
   </g>
  </g>
 </g>
 <defs>
  <clipPath id="p94a718e096">
   <rect x="52.94" y="26.88" width="800.26" height="363.16"/>
  </clipPath>
 </defs>
</svg>
